G75*
%MOIN*%
%OFA0B0*%
%FSLAX26Y26*%
%IPPOS*%
%LPD*%
%AMOC8*
5,1,8,0,0,1.08239X$1,22.5*
%
%ADD10C,0.060000*%
%ADD11OC8,0.060000*%
%ADD12C,0.070000*%
%ADD13C,0.040000*%
D10*
X00575000Y00345000D02*
X00575000Y00405000D01*
X00675000Y00405000D02*
X00675000Y00345000D01*
X00775000Y00345000D02*
X00775000Y00405000D01*
X00875000Y00405000D02*
X00875000Y00345000D01*
X00975000Y00345000D02*
X00975000Y00405000D01*
X01075000Y00405000D02*
X01075000Y00345000D01*
X01275000Y00345000D02*
X01275000Y00405000D01*
X01375000Y00405000D02*
X01375000Y00345000D01*
X01475000Y00345000D02*
X01475000Y00405000D01*
X01575000Y00405000D02*
X01575000Y00345000D01*
X01675000Y00345000D02*
X01675000Y00405000D01*
X01775000Y00405000D02*
X01775000Y00345000D01*
X01875000Y00345000D02*
X01875000Y00405000D01*
X01975000Y00405000D02*
X01975000Y00345000D01*
X02175000Y00345000D02*
X02175000Y00405000D01*
X02275000Y00405000D02*
X02275000Y00345000D01*
X02375000Y00345000D02*
X02375000Y00405000D01*
X02475000Y00405000D02*
X02475000Y00345000D01*
X02575000Y00345000D02*
X02575000Y00405000D01*
X02675000Y00405000D02*
X02675000Y00345000D01*
X02775000Y00345000D02*
X02775000Y00405000D01*
X02875000Y00405000D02*
X02875000Y00345000D01*
X02675000Y02245000D02*
X02675000Y02305000D01*
X02575000Y02305000D02*
X02575000Y02245000D01*
X02475000Y02245000D02*
X02475000Y02305000D01*
X02375000Y02305000D02*
X02375000Y02245000D01*
X02275000Y02245000D02*
X02275000Y02305000D01*
X02175000Y02305000D02*
X02175000Y02245000D01*
X02075000Y02245000D02*
X02075000Y02305000D01*
X01975000Y02305000D02*
X01975000Y02245000D01*
X01775000Y02245000D02*
X01775000Y02305000D01*
X01675000Y02305000D02*
X01675000Y02245000D01*
X01575000Y02245000D02*
X01575000Y02305000D01*
X01475000Y02305000D02*
X01475000Y02245000D01*
X01375000Y02245000D02*
X01375000Y02305000D01*
X01275000Y02305000D02*
X01275000Y02245000D01*
X01175000Y02245000D02*
X01175000Y02305000D01*
X01075000Y02305000D02*
X01075000Y02245000D01*
X00915000Y02245000D02*
X00915000Y02305000D01*
X00815000Y02305000D02*
X00815000Y02245000D01*
X00715000Y02245000D02*
X00715000Y02305000D01*
X00615000Y02305000D02*
X00615000Y02245000D01*
X00515000Y02245000D02*
X00515000Y02305000D01*
X00415000Y02305000D02*
X00415000Y02245000D01*
X00315000Y02245000D02*
X00315000Y02305000D01*
X00215000Y02305000D02*
X00215000Y02245000D01*
D11*
X02975000Y02175000D03*
X03075000Y02175000D03*
X03075000Y02075000D03*
X02975000Y02075000D03*
X02975000Y01975000D03*
X03075000Y01975000D03*
X03075000Y01875000D03*
X02975000Y01875000D03*
X02975000Y01775000D03*
X02975000Y01675000D03*
X03075000Y01675000D03*
X03075000Y01775000D03*
X03075000Y01575000D03*
X02975000Y01575000D03*
X02975000Y01475000D03*
X03075000Y01475000D03*
X03075000Y01375000D03*
X02975000Y01375000D03*
X02975000Y01275000D03*
X03075000Y01275000D03*
X03075000Y01175000D03*
X02975000Y01175000D03*
X02975000Y01075000D03*
X03075000Y01075000D03*
X03075000Y00975000D03*
X03075000Y00875000D03*
X02975000Y00875000D03*
X02975000Y00975000D03*
X02975000Y00775000D03*
X03075000Y00775000D03*
X03075000Y00675000D03*
X02975000Y00675000D03*
D12*
X02200000Y00950000D03*
X02100000Y00950000D03*
X02000000Y00950000D03*
X01900000Y00950000D03*
X02100000Y00800000D03*
X01875000Y00550000D03*
X01375000Y00500000D03*
X01275000Y00725000D03*
X01225000Y00950000D03*
X01325000Y00950000D03*
X01425000Y00950000D03*
X01525000Y00950000D03*
X01575000Y01175000D03*
X01525000Y01450000D03*
X01425000Y01450000D03*
X01325000Y01450000D03*
X01225000Y01450000D03*
X00875000Y01350000D03*
X00825000Y01450000D03*
X00725000Y01450000D03*
X00625000Y01450000D03*
X00525000Y01450000D03*
X00525000Y01600000D03*
X00625000Y01600000D03*
X00275000Y01375000D03*
X00725000Y01050000D03*
X00725000Y00950000D03*
X00625000Y00950000D03*
X00525000Y00950000D03*
X00825000Y00950000D03*
X00900000Y01150000D03*
X01100000Y01025000D03*
X01900000Y01450000D03*
X02000000Y01450000D03*
X02100000Y01450000D03*
X02200000Y01450000D03*
D13*
X00090000Y01498638D02*
X00090000Y00115000D01*
X03310000Y00115000D01*
X03310000Y02510000D01*
X00090000Y02510000D01*
X00090000Y02499852D01*
X00091013Y02500865D01*
X00113065Y02510000D01*
X03061935Y02510000D01*
X03083987Y02500865D01*
X03283987Y02300865D01*
X03300865Y02283987D01*
X03310000Y02261935D01*
X03310000Y01363065D01*
X03300865Y01341013D01*
X03200865Y01241013D01*
X03183987Y01224134D01*
X03161935Y01215000D01*
X03134852Y01215000D01*
X03142166Y01207687D01*
X03150447Y01199605D01*
X03150597Y01199256D01*
X03253987Y01095865D01*
X03270865Y01078987D01*
X03280000Y01056935D01*
X03280000Y00613065D01*
X03270865Y00591013D01*
X03180865Y00501013D01*
X03163987Y00484134D01*
X03141935Y00475000D01*
X02788065Y00475000D01*
X02766013Y00484134D01*
X02265147Y00985000D01*
X02254848Y00985000D01*
X02258422Y00978810D01*
X02261682Y00970938D01*
X02263888Y00962708D01*
X02265000Y00954260D01*
X02265000Y00950000D01*
X02200001Y00950000D01*
X02200001Y00949999D01*
X02265000Y00949999D01*
X02265000Y00945740D01*
X02263888Y00937292D01*
X02261682Y00929062D01*
X02258422Y00921189D01*
X02254161Y00913810D01*
X02248974Y00907051D01*
X02242949Y00901025D01*
X02236189Y00895838D01*
X02228810Y00891578D01*
X02228431Y00891421D01*
X02610865Y00508987D01*
X02620000Y00486935D01*
X02620000Y00458995D01*
X02625000Y00453995D01*
X02635348Y00464343D01*
X02661076Y00475000D01*
X02688924Y00475000D01*
X02714652Y00464343D01*
X02725000Y00453995D01*
X02735348Y00464343D01*
X02761076Y00475000D01*
X02788924Y00475000D01*
X02814652Y00464343D01*
X02825000Y00453995D01*
X02835348Y00464343D01*
X02861076Y00475000D01*
X02888924Y00475000D01*
X02914652Y00464343D01*
X02934343Y00444652D01*
X02945000Y00418924D01*
X02945000Y00331076D01*
X02934343Y00305348D01*
X02914652Y00285657D01*
X02888924Y00275000D01*
X02861076Y00275000D01*
X02835348Y00285657D01*
X02825000Y00296005D01*
X02814652Y00285657D01*
X02788924Y00275000D01*
X02761076Y00275000D01*
X02735348Y00285657D01*
X02725000Y00296005D01*
X02714652Y00285657D01*
X02688924Y00275000D01*
X02661076Y00275000D01*
X02635348Y00285657D01*
X02625000Y00296005D01*
X02614652Y00285657D01*
X02588924Y00275000D01*
X02561076Y00275000D01*
X02535348Y00285657D01*
X02525000Y00296005D01*
X02514652Y00285657D01*
X02488924Y00275000D01*
X02461076Y00275000D01*
X02435348Y00285657D01*
X02425000Y00296005D01*
X02414652Y00285657D01*
X02410000Y00283730D01*
X02410000Y00283065D01*
X02400865Y00261013D01*
X02310865Y00171013D01*
X02293987Y00154134D01*
X02271935Y00145000D01*
X00508065Y00145000D01*
X00486013Y00154134D01*
X00216013Y00424134D01*
X00199134Y00441013D01*
X00190000Y00463065D01*
X00190000Y01131355D01*
X00188997Y01139584D01*
X00190000Y01143190D01*
X00190000Y01146935D01*
X00193172Y01154593D01*
X00195394Y01162580D01*
X00197702Y01165528D01*
X00199134Y01168987D01*
X00204996Y01174849D01*
X00287702Y01280528D01*
X00289134Y01283987D01*
X00294996Y01289849D01*
X00300105Y01296377D01*
X00303365Y01298218D01*
X00306013Y01300865D01*
X00313671Y01304038D01*
X00320890Y01308114D01*
X00323591Y01308443D01*
X00366013Y01350865D01*
X00388065Y01360000D01*
X00992436Y01360000D01*
X00996670Y01361085D01*
X01004264Y01360000D01*
X01011935Y01360000D01*
X01015973Y01358327D01*
X01020300Y01357709D01*
X01026901Y01353801D01*
X01033987Y01350865D01*
X01037078Y01347775D01*
X01040839Y01345548D01*
X01045442Y01339411D01*
X01050865Y01333987D01*
X01052538Y01329949D01*
X01092701Y01276398D01*
X01093987Y01275865D01*
X01099287Y01270566D01*
X01105309Y01266104D01*
X01107649Y01262203D01*
X01348342Y01021511D01*
X01367484Y01013582D01*
X01375000Y01006066D01*
X01382516Y01013582D01*
X01410081Y01025000D01*
X01439918Y01025000D01*
X01467484Y01013582D01*
X01482074Y00998992D01*
X01488810Y01004161D01*
X01496189Y01008422D01*
X01504062Y01011682D01*
X01512292Y01013888D01*
X01520740Y01015000D01*
X01524999Y01015000D01*
X01524999Y00950001D01*
X01525000Y00950001D01*
X01525000Y01015000D01*
X01529260Y01015000D01*
X01537708Y01013888D01*
X01540000Y01013273D01*
X01540000Y01020147D01*
X01176013Y01384134D01*
X01159134Y01401013D01*
X01150000Y01423065D01*
X01150000Y01464918D01*
X01161418Y01492484D01*
X01182516Y01513582D01*
X01210081Y01525000D01*
X01239918Y01525000D01*
X01267484Y01513582D01*
X01275000Y01506066D01*
X01282516Y01513582D01*
X01310081Y01525000D01*
X01339918Y01525000D01*
X01367484Y01513582D01*
X01375000Y01506066D01*
X01382516Y01513582D01*
X01410081Y01525000D01*
X01439918Y01525000D01*
X01467484Y01513582D01*
X01482074Y01498992D01*
X01488810Y01504161D01*
X01496189Y01508422D01*
X01504062Y01511682D01*
X01512292Y01513888D01*
X01520740Y01515000D01*
X01524999Y01515000D01*
X01524999Y01450001D01*
X01525000Y01450001D01*
X01525000Y01515000D01*
X01529260Y01515000D01*
X01537708Y01513888D01*
X01545938Y01511682D01*
X01553810Y01508422D01*
X01561189Y01504161D01*
X01567949Y01498974D01*
X01573974Y01492949D01*
X01579161Y01486189D01*
X01583422Y01478810D01*
X01586682Y01470938D01*
X01588888Y01462708D01*
X01590000Y01454260D01*
X01590000Y01450000D01*
X01525001Y01450000D01*
X01525001Y01449999D01*
X01590000Y01449999D01*
X01590000Y01445740D01*
X01588888Y01437292D01*
X01586682Y01429062D01*
X01583422Y01421189D01*
X01579161Y01413810D01*
X01573974Y01407051D01*
X01567949Y01401025D01*
X01561189Y01395838D01*
X01553810Y01391578D01*
X01549896Y01389957D01*
X01710865Y01228987D01*
X01720000Y01206935D01*
X01720000Y01009853D01*
X01750000Y00979852D01*
X01750000Y01506935D01*
X01759134Y01528987D01*
X01789134Y01558987D01*
X01806013Y01575865D01*
X01828065Y01585000D01*
X02061935Y01585000D01*
X02083987Y01575865D01*
X02148225Y01511627D01*
X02153212Y01508303D01*
X02156583Y01503270D01*
X02159216Y01500636D01*
X02163810Y01504161D01*
X02171189Y01508422D01*
X02179062Y01511682D01*
X02187292Y01513888D01*
X02195740Y01515000D01*
X02199999Y01515000D01*
X02199999Y01450001D01*
X02200000Y01450001D01*
X02200000Y01515000D01*
X02204260Y01515000D01*
X02212708Y01513888D01*
X02217560Y01512588D01*
X02145147Y01585000D01*
X00934853Y01585000D01*
X00856640Y01506788D01*
X00861189Y01504161D01*
X00867949Y01498974D01*
X00873974Y01492949D01*
X00879161Y01486189D01*
X00883422Y01478810D01*
X00886682Y01470938D01*
X00888888Y01462708D01*
X00890000Y01454260D01*
X00890000Y01450000D01*
X00825001Y01450000D01*
X00825001Y01449999D01*
X00890000Y01449999D01*
X00890000Y01445740D01*
X00888888Y01437292D01*
X00886682Y01429062D01*
X00883422Y01421189D01*
X00879161Y01413810D01*
X00873974Y01407051D01*
X00867949Y01401025D01*
X00861189Y01395838D01*
X00853810Y01391578D01*
X00845938Y01388317D01*
X00837708Y01386112D01*
X00829260Y01385000D01*
X00825000Y01385000D01*
X00825000Y01449999D01*
X00824999Y01449999D01*
X00824999Y01385000D01*
X00820740Y01385000D01*
X00812292Y01386112D01*
X00804062Y01388317D01*
X00796189Y01391578D01*
X00788810Y01395838D01*
X00782074Y01401008D01*
X00767484Y01386418D01*
X00739918Y01375000D01*
X00710081Y01375000D01*
X00682516Y01386418D01*
X00675000Y01393934D01*
X00667484Y01386418D01*
X00639918Y01375000D01*
X00610081Y01375000D01*
X00582516Y01386418D01*
X00575000Y01393934D01*
X00567484Y01386418D01*
X00539918Y01375000D01*
X00510081Y01375000D01*
X00482516Y01386418D01*
X00461418Y01407516D01*
X00450000Y01435081D01*
X00450000Y01464918D01*
X00461418Y01492484D01*
X00465000Y01496066D01*
X00465000Y01553934D01*
X00461418Y01557516D01*
X00450000Y01585081D01*
X00450000Y01614918D01*
X00461418Y01642484D01*
X00482516Y01663582D01*
X00510081Y01675000D01*
X00539918Y01675000D01*
X00567484Y01663582D01*
X00575000Y01656066D01*
X00582516Y01663582D01*
X00610081Y01675000D01*
X00639918Y01675000D01*
X00667484Y01663582D01*
X00688582Y01642484D01*
X00700000Y01614918D01*
X00700000Y01585081D01*
X00688582Y01557516D01*
X00685000Y01553934D01*
X00685000Y01514611D01*
X00701658Y01521511D01*
X00876013Y01695865D01*
X00898065Y01705000D01*
X02181935Y01705000D01*
X02203987Y01695865D01*
X02220865Y01678987D01*
X02220865Y01678987D01*
X02464853Y01435000D01*
X02916005Y01435000D01*
X02905000Y01446005D01*
X02905000Y01503995D01*
X02926005Y01525000D01*
X02905000Y01546005D01*
X02905000Y01603995D01*
X02926005Y01625000D01*
X02905000Y01646005D01*
X02905000Y01703995D01*
X02926005Y01725000D01*
X02905000Y01746005D01*
X02905000Y01803995D01*
X02926005Y01825000D01*
X02905000Y01846005D01*
X02905000Y01903995D01*
X02926005Y01925000D01*
X02905000Y01946005D01*
X02905000Y02003995D01*
X02926005Y02025000D01*
X02905000Y02046005D01*
X02905000Y02103995D01*
X02926005Y02125000D01*
X02905000Y02146005D01*
X02905000Y02203995D01*
X02946005Y02245000D01*
X03003995Y02245000D01*
X03025000Y02223995D01*
X03046005Y02245000D01*
X03103995Y02245000D01*
X03145000Y02203995D01*
X03145000Y02146005D01*
X03123995Y02125000D01*
X03145000Y02103995D01*
X03145000Y02046005D01*
X03123995Y02025000D01*
X03145000Y02003995D01*
X03145000Y01946005D01*
X03123995Y01925000D01*
X03145000Y01903995D01*
X03145000Y01846005D01*
X03123995Y01825000D01*
X03145000Y01803995D01*
X03145000Y01746005D01*
X03123995Y01725000D01*
X03145000Y01703995D01*
X03145000Y01646005D01*
X03123995Y01625000D01*
X03145000Y01603995D01*
X03145000Y01546005D01*
X03123995Y01525000D01*
X03145000Y01503995D01*
X03145000Y01446005D01*
X03123995Y01425000D01*
X03145000Y01403995D01*
X03145000Y01354852D01*
X03190000Y01399853D01*
X03190000Y02225147D01*
X03025147Y02390000D01*
X00185000Y02390000D01*
X00185000Y02368341D01*
X00201076Y02375000D01*
X00228924Y02375000D01*
X00254652Y02364343D01*
X00272071Y02346924D01*
X00275913Y02350765D01*
X00283553Y02356316D01*
X00291968Y02360604D01*
X00300950Y02363523D01*
X00310278Y02365000D01*
X00314999Y02365000D01*
X00314999Y02275001D01*
X00315000Y02275001D01*
X00315000Y02365000D01*
X00319722Y02365000D01*
X00329050Y02363523D01*
X00338032Y02360604D01*
X00346447Y02356316D01*
X00354087Y02350765D01*
X00357929Y02346924D01*
X00375348Y02364343D01*
X00401076Y02375000D01*
X00428924Y02375000D01*
X00454652Y02364343D01*
X00465000Y02353995D01*
X00475348Y02364343D01*
X00501076Y02375000D01*
X00528924Y02375000D01*
X00554652Y02364343D01*
X00565000Y02353995D01*
X00575348Y02364343D01*
X00601076Y02375000D01*
X00628924Y02375000D01*
X00654652Y02364343D01*
X00665000Y02353995D01*
X00675348Y02364343D01*
X00701076Y02375000D01*
X00728924Y02375000D01*
X00754652Y02364343D01*
X00765000Y02353995D01*
X00775348Y02364343D01*
X00801076Y02375000D01*
X00828924Y02375000D01*
X00854652Y02364343D01*
X00865000Y02353995D01*
X00875348Y02364343D01*
X00901076Y02375000D01*
X00928924Y02375000D01*
X00954652Y02364343D01*
X00974343Y02344652D01*
X00985000Y02318924D01*
X00985000Y02231076D01*
X00974343Y02205348D01*
X00954652Y02185657D01*
X00928924Y02175000D01*
X00901076Y02175000D01*
X00875348Y02185657D01*
X00865000Y02196005D01*
X00854652Y02185657D01*
X00828924Y02175000D01*
X00801076Y02175000D01*
X00775348Y02185657D01*
X00765000Y02196005D01*
X00754652Y02185657D01*
X00728924Y02175000D01*
X00701076Y02175000D01*
X00675348Y02185657D01*
X00665000Y02196005D01*
X00654652Y02185657D01*
X00628924Y02175000D01*
X00601076Y02175000D01*
X00575348Y02185657D01*
X00565000Y02196005D01*
X00554652Y02185657D01*
X00528924Y02175000D01*
X00501076Y02175000D01*
X00475348Y02185657D01*
X00465000Y02196005D01*
X00454652Y02185657D01*
X00428924Y02175000D01*
X00401076Y02175000D01*
X00375348Y02185657D01*
X00357929Y02203076D01*
X00354087Y02199234D01*
X00346447Y02193683D01*
X00338032Y02189396D01*
X00329050Y02186477D01*
X00319722Y02185000D01*
X00315000Y02185000D01*
X00315000Y02274999D01*
X00314999Y02274999D01*
X00314999Y02185000D01*
X00310278Y02185000D01*
X00300950Y02186477D01*
X00291968Y02189396D01*
X00283553Y02193683D01*
X00275913Y02199234D01*
X00272071Y02203076D01*
X00254652Y02185657D01*
X00228924Y02175000D01*
X00201076Y02175000D01*
X00185000Y02181659D01*
X00185000Y01572195D01*
X00289739Y01450000D01*
X00289918Y01450000D01*
X00317484Y01438582D01*
X00338582Y01417484D01*
X00350000Y01389918D01*
X00350000Y01360081D01*
X00338582Y01332516D01*
X00317484Y01311418D01*
X00289918Y01300000D01*
X00260081Y01300000D01*
X00232516Y01311418D01*
X00211418Y01332516D01*
X00200000Y01360081D01*
X00200000Y01370305D01*
X00090000Y01498638D01*
X00090000Y01479945D02*
X00106022Y01479945D01*
X00090000Y01439947D02*
X00140307Y01439947D01*
X00174591Y01399948D02*
X00090000Y01399948D01*
X00090000Y01359950D02*
X00200055Y01359950D01*
X00223983Y01319951D02*
X00090000Y01319951D01*
X00090000Y01279953D02*
X00287251Y01279953D01*
X00255948Y01239954D02*
X00090000Y01239954D01*
X00090000Y01199956D02*
X00224645Y01199956D01*
X00190000Y01195000D02*
X00430000Y01435000D01*
X00340000Y01525000D01*
X00340000Y02275000D01*
X00315000Y02275000D01*
X00315001Y02275000D02*
X00345000Y02275000D01*
X00345000Y02274999D01*
X00315001Y02274999D01*
X00315001Y02275000D01*
X00314999Y02279916D02*
X00315000Y02279916D01*
X00314999Y02319914D02*
X00315000Y02319914D01*
X00314999Y02359913D02*
X00315000Y02359913D01*
X00339389Y02359913D02*
X00370918Y02359913D01*
X00290611Y02359913D02*
X00259082Y02359913D01*
X00125000Y02450000D02*
X03050000Y02450000D01*
X03250000Y02250000D01*
X03250000Y01375000D01*
X03150000Y01275000D01*
X03075000Y01275000D01*
X03150088Y01199956D02*
X03310000Y01199956D01*
X03310000Y01159957D02*
X03189895Y01159957D01*
X03229894Y01119959D02*
X03310000Y01119959D01*
X03310000Y01079960D02*
X03269892Y01079960D01*
X03280000Y01039962D02*
X03310000Y01039962D01*
X03310000Y00999963D02*
X03280000Y00999963D01*
X03280000Y00959965D02*
X03310000Y00959965D01*
X03310000Y00919966D02*
X03280000Y00919966D01*
X03280000Y00879968D02*
X03310000Y00879968D01*
X03310000Y00839969D02*
X03280000Y00839969D01*
X03280000Y00799970D02*
X03310000Y00799970D01*
X03310000Y00759972D02*
X03280000Y00759972D01*
X03280000Y00719973D02*
X03310000Y00719973D01*
X03310000Y00679975D02*
X03280000Y00679975D01*
X03280000Y00639976D02*
X03310000Y00639976D01*
X03310000Y00599978D02*
X03274579Y00599978D01*
X03239832Y00559979D02*
X03310000Y00559979D01*
X03310000Y00519981D02*
X03199834Y00519981D01*
X03153963Y00479982D02*
X03310000Y00479982D01*
X03310000Y00439984D02*
X02936277Y00439984D01*
X02950000Y00445000D02*
X02950000Y00295000D01*
X02800000Y00145000D01*
X00490000Y00145000D01*
X00190000Y00445000D01*
X00190000Y01195000D01*
X00194665Y01159957D02*
X00090000Y01159957D01*
X00090000Y01119959D02*
X00190000Y01119959D01*
X00190000Y01079960D02*
X00090000Y01079960D01*
X00090000Y01039962D02*
X00190000Y01039962D01*
X00190000Y00999963D02*
X00090000Y00999963D01*
X00090000Y00959965D02*
X00190000Y00959965D01*
X00190000Y00919966D02*
X00090000Y00919966D01*
X00090000Y00879968D02*
X00190000Y00879968D01*
X00190000Y00839969D02*
X00090000Y00839969D01*
X00090000Y00799970D02*
X00190000Y00799970D01*
X00190000Y00759972D02*
X00090000Y00759972D01*
X00090000Y00719973D02*
X00190000Y00719973D01*
X00190000Y00679975D02*
X00090000Y00679975D01*
X00090000Y00639976D02*
X00190000Y00639976D01*
X00190000Y00599978D02*
X00090000Y00599978D01*
X00090000Y00559979D02*
X00190000Y00559979D01*
X00190000Y00519981D02*
X00090000Y00519981D01*
X00090000Y00479982D02*
X00190000Y00479982D01*
X00200163Y00439984D02*
X00090000Y00439984D01*
X00090000Y00399985D02*
X00240162Y00399985D01*
X00280160Y00359987D02*
X00090000Y00359987D01*
X00090000Y00319988D02*
X00320159Y00319988D01*
X00360157Y00279990D02*
X00090000Y00279990D01*
X00090000Y00239991D02*
X00400156Y00239991D01*
X00440155Y00199993D02*
X00090000Y00199993D01*
X00090000Y00159994D02*
X00480153Y00159994D01*
X00520000Y00205000D02*
X00250000Y00475000D01*
X00250000Y01135000D01*
X00340000Y01250000D01*
X00350000Y01250000D01*
X00400000Y01300000D01*
X01000000Y01300000D01*
X01075000Y01200000D01*
X01060000Y01225000D01*
X01330000Y00955000D01*
X01325000Y00950000D01*
X01420000Y00925000D02*
X01425000Y00950000D01*
X01420000Y00925000D02*
X01750000Y00595000D01*
X01750000Y00385000D01*
X01775000Y00375000D01*
X01675000Y00375000D02*
X01660000Y00385000D01*
X01660000Y00445000D01*
X01240000Y00865000D01*
X01030000Y00865000D01*
X01025000Y01150000D01*
X00970000Y01230000D01*
X00460000Y01230000D01*
X00450000Y01225000D02*
X00370000Y01145000D01*
X00370000Y00445000D01*
X00550000Y00265000D01*
X01120000Y00265000D01*
X01150000Y00295000D01*
X01150000Y00445000D01*
X00850000Y00745000D01*
X00700000Y00745000D01*
X00520000Y00925000D01*
X00525000Y00950000D01*
X00456261Y00919966D02*
X00430000Y00919966D01*
X00450000Y00935081D02*
X00461418Y00907516D01*
X00462513Y00906421D01*
X00463457Y00901648D01*
X00466817Y00896609D01*
X00469134Y00891013D01*
X00473373Y00886775D01*
X00476697Y00881788D01*
X00481730Y00878417D01*
X00666013Y00694134D01*
X00688065Y00685000D01*
X00825147Y00685000D01*
X01042742Y00467406D01*
X01035348Y00464343D01*
X01017929Y00446924D01*
X01014087Y00450765D01*
X01006447Y00456316D01*
X00998032Y00460604D01*
X00989050Y00463523D01*
X00979722Y00465000D01*
X00975000Y00465000D01*
X00975000Y00375001D01*
X00974999Y00375001D01*
X00974999Y00465000D01*
X00970278Y00465000D01*
X00960950Y00463523D01*
X00951968Y00460604D01*
X00943553Y00456316D01*
X00935913Y00450765D01*
X00929234Y00444087D01*
X00925000Y00438259D01*
X00920765Y00444087D01*
X00914087Y00450765D01*
X00906447Y00456316D01*
X00898032Y00460604D01*
X00889050Y00463523D01*
X00879722Y00465000D01*
X00875000Y00465000D01*
X00875000Y00375001D01*
X00874999Y00375001D01*
X00874999Y00465000D01*
X00870278Y00465000D01*
X00860950Y00463523D01*
X00851968Y00460604D01*
X00843553Y00456316D01*
X00835913Y00450765D01*
X00832071Y00446924D01*
X00814652Y00464343D01*
X00788924Y00475000D01*
X00761076Y00475000D01*
X00735348Y00464343D01*
X00725000Y00453995D01*
X00714652Y00464343D01*
X00688924Y00475000D01*
X00661076Y00475000D01*
X00635348Y00464343D01*
X00625000Y00453995D01*
X00614652Y00464343D01*
X00588924Y00475000D01*
X00561076Y00475000D01*
X00535348Y00464343D01*
X00515657Y00444652D01*
X00505000Y00418924D01*
X00505000Y00394852D01*
X00430000Y00469853D01*
X00430000Y01120147D01*
X00479853Y01170000D01*
X00938438Y01170000D01*
X00965326Y01130890D01*
X00969991Y00865000D01*
X00784853Y00865000D01*
X00764621Y00885232D01*
X00767484Y00886418D01*
X00782074Y00901008D01*
X00788810Y00895838D01*
X00796189Y00891578D01*
X00804062Y00888317D01*
X00812292Y00886112D01*
X00820740Y00885000D01*
X00824999Y00885000D01*
X00824999Y00949999D01*
X00825000Y00949999D01*
X00825000Y00885000D01*
X00829260Y00885000D01*
X00837708Y00886112D01*
X00845938Y00888317D01*
X00853810Y00891578D01*
X00861189Y00895838D01*
X00867949Y00901025D01*
X00873974Y00907051D01*
X00879161Y00913810D01*
X00883422Y00921189D01*
X00886682Y00929062D01*
X00888888Y00937292D01*
X00890000Y00945740D01*
X00890000Y00949999D01*
X00825001Y00949999D01*
X00825001Y00950000D01*
X00890000Y00950000D01*
X00890000Y00954260D01*
X00888888Y00962708D01*
X00886682Y00970938D01*
X00883422Y00978810D01*
X00879161Y00986189D01*
X00873974Y00992949D01*
X00867949Y00998974D01*
X00861189Y01004161D01*
X00853810Y01008422D01*
X00845938Y01011682D01*
X00837708Y01013888D01*
X00829260Y01015000D01*
X00825000Y01015000D01*
X00825000Y00950001D01*
X00824999Y00950001D01*
X00824999Y01015000D01*
X00820740Y01015000D01*
X00812292Y01013888D01*
X00804062Y01011682D01*
X00796189Y01008422D01*
X00788810Y01004161D01*
X00785000Y01001237D01*
X00785000Y01003934D01*
X00788582Y01007516D01*
X00800000Y01035081D01*
X00800000Y01064918D01*
X00788582Y01092484D01*
X00767484Y01113582D01*
X00739918Y01125000D01*
X00710081Y01125000D01*
X00682516Y01113582D01*
X00661418Y01092484D01*
X00650000Y01064918D01*
X00650000Y01035081D01*
X00657129Y01017871D01*
X00639918Y01025000D01*
X00610081Y01025000D01*
X00582516Y01013582D01*
X00575000Y01006066D01*
X00567484Y01013582D01*
X00539918Y01025000D01*
X00510081Y01025000D01*
X00482516Y01013582D01*
X00461418Y00992484D01*
X00450000Y00964918D01*
X00450000Y00935081D01*
X00450000Y00959965D02*
X00430000Y00959965D01*
X00430000Y00985000D02*
X00430000Y01105000D01*
X00475000Y01150000D01*
X00900000Y01150000D01*
X00945343Y01159957D02*
X00469810Y01159957D01*
X00490000Y01145000D02*
X00465000Y01110000D01*
X00475000Y01125000D01*
X00490000Y01145000D01*
X00830000Y01145000D01*
X00825000Y01125000D01*
X00820000Y00985000D01*
X00820000Y00955000D01*
X00825000Y00950000D01*
X00824999Y00959965D02*
X00825000Y00959965D01*
X00824999Y00999963D02*
X00825000Y00999963D01*
X00866661Y00999963D02*
X00967623Y00999963D01*
X00968325Y00959965D02*
X00889249Y00959965D01*
X00882715Y00919966D02*
X00969026Y00919966D01*
X00969728Y00879968D02*
X00769885Y00879968D01*
X00824999Y00919966D02*
X00825000Y00919966D01*
X00725000Y00950000D02*
X00725000Y01050000D01*
X00656231Y01079960D02*
X00430000Y01079960D01*
X00430000Y01119959D02*
X00697911Y01119959D01*
X00752089Y01119959D02*
X00965518Y01119959D01*
X00966219Y01079960D02*
X00793769Y01079960D01*
X00800000Y01039962D02*
X00966921Y01039962D01*
X01100000Y01025000D02*
X01100000Y00950000D01*
X01225000Y00950000D01*
X01329891Y01039962D02*
X01520186Y01039962D01*
X01524999Y00999963D02*
X01525000Y00999963D01*
X01510000Y00985000D02*
X01510000Y00955000D01*
X01525000Y00950000D01*
X01524999Y00959965D02*
X01525000Y00959965D01*
X01510000Y00985000D02*
X01060000Y01435000D01*
X01150000Y01525000D01*
X01480000Y01525000D01*
X01510000Y01495000D01*
X01510000Y01465000D01*
X01525000Y01450000D01*
X01660000Y01585000D01*
X02080000Y01585000D01*
X02200000Y01465000D01*
X02200000Y01450000D01*
X02200001Y01450000D02*
X02265000Y01450000D01*
X02265000Y01454260D01*
X02263888Y01462708D01*
X02262588Y01467560D01*
X02389134Y01341013D01*
X02389134Y01341013D01*
X02406013Y01324134D01*
X02428065Y01315000D01*
X02916005Y01315000D01*
X02905000Y01303995D01*
X02905000Y01246005D01*
X02926005Y01225000D01*
X02905000Y01203995D01*
X02905000Y01146005D01*
X02926005Y01125000D01*
X02905000Y01103995D01*
X02905000Y01046005D01*
X02906005Y01045000D01*
X02644853Y01045000D01*
X02280865Y01408987D01*
X02263987Y01425865D01*
X02260890Y01427148D01*
X02261682Y01429062D01*
X02263888Y01437292D01*
X02265000Y01445740D01*
X02265000Y01449999D01*
X02200001Y01449999D01*
X02200001Y01450000D01*
X02199999Y01479945D02*
X02200000Y01479945D01*
X02210203Y01519944D02*
X02139909Y01519944D01*
X02170205Y01559942D02*
X02099910Y01559942D01*
X02050000Y01525000D02*
X02110000Y01465000D01*
X02100000Y01450000D01*
X02050000Y01375000D02*
X01990000Y01435000D01*
X02000000Y01450000D01*
X02050000Y01375000D02*
X02230000Y01375000D01*
X02620000Y00985000D01*
X02950000Y00985000D01*
X02975000Y00975000D01*
X02975000Y00875000D02*
X02950000Y00865000D01*
X02650000Y00865000D01*
X02200000Y01315000D01*
X02020000Y01315000D01*
X01900000Y01435000D01*
X01900000Y01450000D01*
X01840000Y01525000D02*
X02050000Y01525000D01*
X02170000Y01645000D02*
X00910000Y01645000D01*
X00730000Y01465000D01*
X00725000Y01450000D01*
X00781014Y01399948D02*
X00783454Y01399948D01*
X00775000Y01375000D02*
X00760000Y01375000D01*
X00820000Y01435000D01*
X00825000Y01450000D01*
X00850000Y01435000D01*
X01060000Y01435000D01*
X01012056Y01359950D02*
X01200197Y01359950D01*
X01240196Y01319951D02*
X01060036Y01319951D01*
X01090035Y01279953D02*
X01280194Y01279953D01*
X01320193Y01239954D02*
X01129898Y01239954D01*
X01169897Y01199956D02*
X01360191Y01199956D01*
X01400190Y01159957D02*
X01209895Y01159957D01*
X01249894Y01119959D02*
X01440188Y01119959D01*
X01480187Y01079960D02*
X01289892Y01079960D01*
X01481103Y00999963D02*
X01483339Y00999963D01*
X01600000Y00955000D02*
X01600000Y01045000D01*
X01210000Y01435000D01*
X01225000Y01450000D01*
X01156224Y01479945D02*
X00882766Y01479945D01*
X00889237Y01439947D02*
X01150000Y01439947D01*
X01160199Y01399948D02*
X00866546Y01399948D01*
X00825000Y01399948D02*
X00824999Y01399948D01*
X00824999Y01439947D02*
X00825000Y01439947D01*
X00775000Y01375000D02*
X00875000Y01350000D01*
X00760000Y01375000D02*
X00490000Y01375000D01*
X00430000Y01435000D01*
X00450000Y01439947D02*
X00314189Y01439947D01*
X00345845Y01399948D02*
X00468986Y01399948D01*
X00525000Y01450000D02*
X00525000Y01600000D01*
X00460364Y01639939D02*
X00185000Y01639939D01*
X00185000Y01599941D02*
X00450000Y01599941D01*
X00460413Y01559942D02*
X00195502Y01559942D01*
X00229787Y01519944D02*
X00465000Y01519944D01*
X00456224Y01479945D02*
X00264071Y01479945D01*
X00275000Y01375000D02*
X00125000Y01550000D01*
X00125000Y02450000D01*
X00314999Y02239917D02*
X00315000Y02239917D01*
X00314999Y02199919D02*
X00315000Y02199919D01*
X00354772Y02199919D02*
X00361086Y02199919D01*
X00275228Y02199919D02*
X00268914Y02199919D01*
X00185000Y02159920D02*
X02905000Y02159920D01*
X02920927Y02119922D02*
X00185000Y02119922D01*
X00185000Y02079923D02*
X02905000Y02079923D01*
X02911080Y02039925D02*
X00185000Y02039925D01*
X00185000Y01999926D02*
X02905000Y01999926D01*
X02905000Y01959928D02*
X00185000Y01959928D01*
X00185000Y01919929D02*
X02920934Y01919929D01*
X02905000Y01879931D02*
X00185000Y01879931D01*
X00185000Y01839932D02*
X02911073Y01839932D01*
X02905000Y01799934D02*
X00185000Y01799934D01*
X00185000Y01759935D02*
X02905000Y01759935D01*
X02920942Y01719937D02*
X00185000Y01719937D01*
X00185000Y01679938D02*
X00860085Y01679938D01*
X00820087Y01639939D02*
X00689636Y01639939D01*
X00700000Y01599941D02*
X00780088Y01599941D01*
X00740090Y01559942D02*
X00689587Y01559942D01*
X00685000Y01519944D02*
X00697875Y01519944D01*
X00625000Y01450000D02*
X00625000Y01600000D01*
X00869797Y01519944D02*
X01197875Y01519944D01*
X01252125Y01519944D02*
X01297875Y01519944D01*
X01352125Y01519944D02*
X01397875Y01519944D01*
X01452125Y01519944D02*
X01755389Y01519944D01*
X01790090Y01559942D02*
X00909795Y01559942D01*
X01325000Y01450000D02*
X01325000Y01425000D01*
X01575000Y01175000D01*
X01660000Y01195000D02*
X01420000Y01435000D01*
X01425000Y01450000D01*
X01524999Y01479945D02*
X01525000Y01479945D01*
X01582766Y01479945D02*
X01750000Y01479945D01*
X01750000Y01439947D02*
X01589237Y01439947D01*
X01566546Y01399948D02*
X01750000Y01399948D01*
X01750000Y01359950D02*
X01579903Y01359950D01*
X01619901Y01319951D02*
X01750000Y01319951D01*
X01750000Y01279953D02*
X01659900Y01279953D01*
X01699898Y01239954D02*
X01750000Y01239954D01*
X01750000Y01199956D02*
X01720000Y01199956D01*
X01720000Y01159957D02*
X01750000Y01159957D01*
X01750000Y01119959D02*
X01720000Y01119959D01*
X01720000Y01079960D02*
X01750000Y01079960D01*
X01750000Y01039962D02*
X01720000Y01039962D01*
X01729890Y00999963D02*
X01750000Y00999963D01*
X01660000Y00985000D02*
X01660000Y01195000D01*
X01660000Y00985000D02*
X02050000Y00595000D01*
X02050000Y00295000D01*
X02020000Y00265000D01*
X01540000Y00265000D01*
X01480000Y00325000D01*
X01480000Y00355000D01*
X01475000Y00375000D01*
X01570000Y00385000D02*
X01575000Y00375000D01*
X01570000Y00385000D02*
X01570000Y00415000D01*
X01180000Y00805000D01*
X00760000Y00805000D01*
X00640000Y00925000D01*
X00625000Y00950000D01*
X00650000Y01039962D02*
X00430000Y01039962D01*
X00430000Y00999963D02*
X00468897Y00999963D01*
X00430000Y00985000D02*
X00430000Y00865000D01*
X00910000Y00385000D01*
X00880000Y00385000D01*
X00875000Y00375000D01*
X00875001Y00375000D02*
X00974999Y00375000D01*
X00974999Y00374999D01*
X00915000Y00374999D01*
X00875001Y00374999D01*
X00875001Y00375000D01*
X00874999Y00399985D02*
X00875000Y00399985D01*
X00910000Y00385000D02*
X00970000Y00385000D01*
X00975000Y00375000D01*
X00974999Y00399985D02*
X00975000Y00399985D01*
X00974999Y00439984D02*
X00975000Y00439984D01*
X01030165Y00479982D02*
X00430000Y00479982D01*
X00459869Y00439984D02*
X00513723Y00439984D01*
X00505000Y00399985D02*
X00499867Y00399985D01*
X00430000Y00519981D02*
X00990166Y00519981D01*
X00950168Y00559979D02*
X00430000Y00559979D01*
X00430000Y00599978D02*
X00910169Y00599978D01*
X00870171Y00639976D02*
X00430000Y00639976D01*
X00430000Y00679975D02*
X00830172Y00679975D01*
X00640174Y00719973D02*
X00430000Y00719973D01*
X00430000Y00759972D02*
X00600175Y00759972D01*
X00560177Y00799970D02*
X00430000Y00799970D01*
X00430000Y00839969D02*
X00520178Y00839969D01*
X00479415Y00879968D02*
X00430000Y00879968D01*
X00430000Y00985000D02*
X00475000Y01125000D01*
X00335099Y01319951D02*
X00326017Y01319951D01*
X00349945Y01359950D02*
X00387944Y01359950D01*
X01275000Y00725000D02*
X01275000Y00375000D01*
X01375000Y00375000D02*
X01375000Y00500000D01*
X00926253Y00439984D02*
X00923747Y00439984D01*
X00875000Y00439984D02*
X00874999Y00439984D01*
X00520000Y00205000D02*
X02260000Y00205000D01*
X02350000Y00295000D01*
X02350000Y00355000D01*
X02375000Y00375000D01*
X02475000Y00375000D02*
X02475000Y00425000D01*
X02100000Y00800000D01*
X02200000Y00919852D02*
X02199999Y00919853D01*
X02199999Y00949999D01*
X02200000Y00949999D01*
X02200000Y00919852D01*
X02199999Y00919966D02*
X02200000Y00919966D01*
X02200000Y00925000D02*
X02200000Y00950000D01*
X02200000Y00925000D02*
X02320000Y00925000D01*
X02770000Y00475000D01*
X02920000Y00475000D01*
X02950000Y00445000D01*
X02945000Y00399985D02*
X03310000Y00399985D01*
X03310000Y00359987D02*
X02945000Y00359987D01*
X02940407Y00319988D02*
X03310000Y00319988D01*
X03310000Y00279990D02*
X02900970Y00279990D01*
X02849030Y00279990D02*
X02800970Y00279990D01*
X02749030Y00279990D02*
X02700970Y00279990D01*
X02649030Y00279990D02*
X02600970Y00279990D01*
X02549030Y00279990D02*
X02500970Y00279990D01*
X02449030Y00279990D02*
X02408726Y00279990D01*
X02379844Y00239991D02*
X03310000Y00239991D01*
X03310000Y00199993D02*
X02339845Y00199993D01*
X02299847Y00159994D02*
X03310000Y00159994D01*
X03310000Y00119996D02*
X00090000Y00119996D01*
X01600000Y00955000D02*
X01960000Y00595000D01*
X01960000Y00385000D01*
X01975000Y00375000D01*
X01875000Y00375000D02*
X01875000Y00550000D01*
X02170000Y00565000D02*
X02170000Y00385000D01*
X02175000Y00375000D01*
X02170000Y00565000D02*
X01810000Y00925000D01*
X01810000Y01495000D01*
X01840000Y01525000D01*
X02170000Y01645000D02*
X02440000Y01375000D01*
X02975000Y01375000D01*
X02911058Y01439947D02*
X02459906Y01439947D01*
X02419907Y01479945D02*
X02905000Y01479945D01*
X02920949Y01519944D02*
X02379909Y01519944D01*
X02339910Y01559942D02*
X02905000Y01559942D01*
X02905000Y01599941D02*
X02299912Y01599941D01*
X02259913Y01639939D02*
X02911066Y01639939D01*
X02905000Y01679938D02*
X02219915Y01679938D01*
X02264237Y01439947D02*
X02290200Y01439947D01*
X02289904Y01399948D02*
X02330199Y01399948D01*
X02329903Y01359950D02*
X02370197Y01359950D01*
X02369901Y01319951D02*
X02416112Y01319951D01*
X02409900Y01279953D02*
X02905000Y01279953D01*
X02911051Y01239954D02*
X02449898Y01239954D01*
X02489897Y01199956D02*
X02905000Y01199956D01*
X02905000Y01159957D02*
X02529895Y01159957D01*
X02569894Y01119959D02*
X02920964Y01119959D01*
X02905000Y01079960D02*
X02609892Y01079960D01*
X02320000Y01105000D02*
X02020000Y01105000D01*
X01900000Y00985000D01*
X01900000Y00950000D01*
X01990000Y00955000D02*
X02000000Y00950000D01*
X01990000Y00955000D02*
X02080000Y01045000D01*
X02290000Y01045000D01*
X02800000Y00535000D01*
X03130000Y00535000D01*
X03220000Y00625000D01*
X03220000Y01045000D01*
X03100000Y01165000D01*
X03075000Y01175000D01*
X03075000Y01075000D02*
X03100000Y01075000D01*
X03160000Y01015000D01*
X03160000Y00655000D01*
X03100000Y00595000D01*
X02830000Y00595000D01*
X02320000Y01105000D01*
X02290183Y00959965D02*
X02264249Y00959965D01*
X02257715Y00919966D02*
X02330181Y00919966D01*
X02370180Y00879968D02*
X02239885Y00879968D01*
X02279884Y00839969D02*
X02410178Y00839969D01*
X02450177Y00799970D02*
X02319882Y00799970D01*
X02359881Y00759972D02*
X02490175Y00759972D01*
X02530174Y00719973D02*
X02399879Y00719973D01*
X02439878Y00679975D02*
X02570172Y00679975D01*
X02610171Y00639976D02*
X02479876Y00639976D01*
X02519875Y00599978D02*
X02650169Y00599978D01*
X02690168Y00559979D02*
X02559873Y00559979D01*
X02599872Y00519981D02*
X02730166Y00519981D01*
X02776037Y00479982D02*
X02620000Y00479982D01*
X02560000Y00475000D02*
X02110000Y00925000D01*
X02100000Y00950000D01*
X02560000Y00475000D02*
X02560000Y00385000D01*
X02575000Y00375000D01*
X03199807Y01239954D02*
X03310000Y01239954D01*
X03310000Y01279953D02*
X03239805Y01279953D01*
X03279804Y01319951D02*
X03310000Y01319951D01*
X03310000Y01359950D02*
X03308709Y01359950D01*
X03310000Y01399948D02*
X03310000Y01399948D01*
X03310000Y01439947D02*
X03310000Y01439947D01*
X03310000Y01479945D02*
X03310000Y01479945D01*
X03310000Y01519944D02*
X03310000Y01519944D01*
X03310000Y01559942D02*
X03310000Y01559942D01*
X03310000Y01599941D02*
X03310000Y01599941D01*
X03310000Y01639939D02*
X03310000Y01639939D01*
X03310000Y01679938D02*
X03310000Y01679938D01*
X03310000Y01719937D02*
X03310000Y01719937D01*
X03310000Y01759935D02*
X03310000Y01759935D01*
X03310000Y01799934D02*
X03310000Y01799934D01*
X03310000Y01839932D02*
X03310000Y01839932D01*
X03310000Y01879931D02*
X03310000Y01879931D01*
X03310000Y01919929D02*
X03310000Y01919929D01*
X03310000Y01959928D02*
X03310000Y01959928D01*
X03310000Y01999926D02*
X03310000Y01999926D01*
X03310000Y02039925D02*
X03310000Y02039925D01*
X03310000Y02079923D02*
X03310000Y02079923D01*
X03310000Y02119922D02*
X03310000Y02119922D01*
X03310000Y02159920D02*
X03310000Y02159920D01*
X03310000Y02199919D02*
X03310000Y02199919D01*
X03310000Y02239917D02*
X03310000Y02239917D01*
X03310000Y02279916D02*
X03302552Y02279916D01*
X03310000Y02319914D02*
X03264938Y02319914D01*
X03224940Y02359913D02*
X03310000Y02359913D01*
X03310000Y02399911D02*
X03184941Y02399911D01*
X03144943Y02439910D02*
X03310000Y02439910D01*
X03310000Y02479908D02*
X03104944Y02479908D01*
X03055234Y02359913D02*
X02719082Y02359913D01*
X02714652Y02364343D02*
X02688924Y02375000D01*
X02661076Y02375000D01*
X02635348Y02364343D01*
X02625000Y02353995D01*
X02614652Y02364343D01*
X02588924Y02375000D01*
X02561076Y02375000D01*
X02535348Y02364343D01*
X02525000Y02353995D01*
X02514652Y02364343D01*
X02488924Y02375000D01*
X02461076Y02375000D01*
X02435348Y02364343D01*
X02425000Y02353995D01*
X02414652Y02364343D01*
X02388924Y02375000D01*
X02361076Y02375000D01*
X02335348Y02364343D01*
X02325000Y02353995D01*
X02314652Y02364343D01*
X02288924Y02375000D01*
X02261076Y02375000D01*
X02235348Y02364343D01*
X02225000Y02353995D01*
X02214652Y02364343D01*
X02188924Y02375000D01*
X02161076Y02375000D01*
X02135348Y02364343D01*
X02125000Y02353995D01*
X02114652Y02364343D01*
X02088924Y02375000D01*
X02061076Y02375000D01*
X02035348Y02364343D01*
X02025000Y02353995D01*
X02014652Y02364343D01*
X01988924Y02375000D01*
X01961076Y02375000D01*
X01935348Y02364343D01*
X01915657Y02344652D01*
X01905000Y02318924D01*
X01905000Y02231076D01*
X01915657Y02205348D01*
X01935348Y02185657D01*
X01961076Y02175000D01*
X01988924Y02175000D01*
X02014652Y02185657D01*
X02025000Y02196005D01*
X02035348Y02185657D01*
X02061076Y02175000D01*
X02088924Y02175000D01*
X02114652Y02185657D01*
X02125000Y02196005D01*
X02135348Y02185657D01*
X02161076Y02175000D01*
X02188924Y02175000D01*
X02214652Y02185657D01*
X02225000Y02196005D01*
X02235348Y02185657D01*
X02261076Y02175000D01*
X02288924Y02175000D01*
X02314652Y02185657D01*
X02325000Y02196005D01*
X02335348Y02185657D01*
X02361076Y02175000D01*
X02388924Y02175000D01*
X02414652Y02185657D01*
X02425000Y02196005D01*
X02435348Y02185657D01*
X02461076Y02175000D01*
X02488924Y02175000D01*
X02514652Y02185657D01*
X02525000Y02196005D01*
X02535348Y02185657D01*
X02561076Y02175000D01*
X02588924Y02175000D01*
X02614652Y02185657D01*
X02625000Y02196005D01*
X02635348Y02185657D01*
X02661076Y02175000D01*
X02688924Y02175000D01*
X02714652Y02185657D01*
X02734343Y02205348D01*
X02745000Y02231076D01*
X02745000Y02318924D01*
X02734343Y02344652D01*
X02714652Y02364343D01*
X02744590Y02319914D02*
X03095233Y02319914D01*
X03135231Y02279916D02*
X02745000Y02279916D01*
X02745000Y02239917D02*
X02940922Y02239917D01*
X02905000Y02199919D02*
X02728914Y02199919D01*
X02630918Y02359913D02*
X02619082Y02359913D01*
X02530918Y02359913D02*
X02519082Y02359913D01*
X02430918Y02359913D02*
X02419082Y02359913D01*
X02330918Y02359913D02*
X02319082Y02359913D01*
X02230918Y02359913D02*
X02219082Y02359913D01*
X02130918Y02359913D02*
X02119082Y02359913D01*
X02030918Y02359913D02*
X02019082Y02359913D01*
X01930918Y02359913D02*
X01819082Y02359913D01*
X01814652Y02364343D02*
X01788924Y02375000D01*
X01761076Y02375000D01*
X01735348Y02364343D01*
X01725000Y02353995D01*
X01714652Y02364343D01*
X01688924Y02375000D01*
X01661076Y02375000D01*
X01635348Y02364343D01*
X01625000Y02353995D01*
X01614652Y02364343D01*
X01588924Y02375000D01*
X01561076Y02375000D01*
X01535348Y02364343D01*
X01525000Y02353995D01*
X01514652Y02364343D01*
X01488924Y02375000D01*
X01461076Y02375000D01*
X01435348Y02364343D01*
X01425000Y02353995D01*
X01414652Y02364343D01*
X01388924Y02375000D01*
X01361076Y02375000D01*
X01335348Y02364343D01*
X01325000Y02353995D01*
X01314652Y02364343D01*
X01288924Y02375000D01*
X01261076Y02375000D01*
X01235348Y02364343D01*
X01225000Y02353995D01*
X01214652Y02364343D01*
X01188924Y02375000D01*
X01161076Y02375000D01*
X01135348Y02364343D01*
X01125000Y02353995D01*
X01114652Y02364343D01*
X01088924Y02375000D01*
X01061076Y02375000D01*
X01035348Y02364343D01*
X01015657Y02344652D01*
X01005000Y02318924D01*
X01005000Y02231076D01*
X01015657Y02205348D01*
X01035348Y02185657D01*
X01061076Y02175000D01*
X01088924Y02175000D01*
X01114652Y02185657D01*
X01125000Y02196005D01*
X01135348Y02185657D01*
X01161076Y02175000D01*
X01188924Y02175000D01*
X01214652Y02185657D01*
X01225000Y02196005D01*
X01235348Y02185657D01*
X01261076Y02175000D01*
X01288924Y02175000D01*
X01314652Y02185657D01*
X01325000Y02196005D01*
X01335348Y02185657D01*
X01361076Y02175000D01*
X01388924Y02175000D01*
X01414652Y02185657D01*
X01425000Y02196005D01*
X01435348Y02185657D01*
X01461076Y02175000D01*
X01488924Y02175000D01*
X01514652Y02185657D01*
X01525000Y02196005D01*
X01535348Y02185657D01*
X01561076Y02175000D01*
X01588924Y02175000D01*
X01614652Y02185657D01*
X01625000Y02196005D01*
X01635348Y02185657D01*
X01661076Y02175000D01*
X01688924Y02175000D01*
X01714652Y02185657D01*
X01725000Y02196005D01*
X01735348Y02185657D01*
X01761076Y02175000D01*
X01788924Y02175000D01*
X01814652Y02185657D01*
X01834343Y02205348D01*
X01845000Y02231076D01*
X01845000Y02318924D01*
X01834343Y02344652D01*
X01814652Y02364343D01*
X01844590Y02319914D02*
X01905410Y02319914D01*
X01905000Y02279916D02*
X01845000Y02279916D01*
X01845000Y02239917D02*
X01905000Y02239917D01*
X01921086Y02199919D02*
X01828914Y02199919D01*
X01730918Y02359913D02*
X01719082Y02359913D01*
X01630918Y02359913D02*
X01619082Y02359913D01*
X01530918Y02359913D02*
X01519082Y02359913D01*
X01430918Y02359913D02*
X01419082Y02359913D01*
X01330918Y02359913D02*
X01319082Y02359913D01*
X01230918Y02359913D02*
X01219082Y02359913D01*
X01130918Y02359913D02*
X01119082Y02359913D01*
X01030918Y02359913D02*
X00959082Y02359913D01*
X00984590Y02319914D02*
X01005410Y02319914D01*
X01005000Y02279916D02*
X00985000Y02279916D01*
X00985000Y02239917D02*
X01005000Y02239917D01*
X01021086Y02199919D02*
X00968914Y02199919D01*
X00870918Y02359913D02*
X00859082Y02359913D01*
X00770918Y02359913D02*
X00759082Y02359913D01*
X00670918Y02359913D02*
X00659082Y02359913D01*
X00570918Y02359913D02*
X00559082Y02359913D01*
X00470918Y02359913D02*
X00459082Y02359913D01*
X03009077Y02239917D02*
X03040923Y02239917D01*
X03109077Y02239917D02*
X03175230Y02239917D01*
X03190000Y02199919D02*
X03145000Y02199919D01*
X03145000Y02159920D02*
X03190000Y02159920D01*
X03190000Y02119922D02*
X03129073Y02119922D01*
X03145000Y02079923D02*
X03190000Y02079923D01*
X03190000Y02039925D02*
X03138919Y02039925D01*
X03145000Y01999926D02*
X03190000Y01999926D01*
X03190000Y01959928D02*
X03145000Y01959928D01*
X03129066Y01919929D02*
X03190000Y01919929D01*
X03190000Y01879931D02*
X03145000Y01879931D01*
X03138927Y01839932D02*
X03190000Y01839932D01*
X03190000Y01799934D02*
X03145000Y01799934D01*
X03145000Y01759935D02*
X03190000Y01759935D01*
X03190000Y01719937D02*
X03129058Y01719937D01*
X03145000Y01679938D02*
X03190000Y01679938D01*
X03190000Y01639939D02*
X03138934Y01639939D01*
X03145000Y01599941D02*
X03190000Y01599941D01*
X03190000Y01559942D02*
X03145000Y01559942D01*
X03129051Y01519944D02*
X03190000Y01519944D01*
X03190000Y01479945D02*
X03145000Y01479945D01*
X03138942Y01439947D02*
X03190000Y01439947D01*
X03190000Y01399948D02*
X03145000Y01399948D01*
X03145000Y01359950D02*
X03150097Y01359950D01*
M02*
