G75*
%MOIN*%
%OFA0B0*%
%FSLAX26Y26*%
%IPPOS*%
%LPD*%
%AMOC8*
5,1,8,0,0,1.08239X$1,22.5*
%
%ADD10C,0.060000*%
%ADD11OC8,0.060000*%
%ADD12C,0.059370*%
%ADD13C,0.051496*%
%ADD14C,0.040000*%
D10*
X00625000Y00620000D02*
X00625000Y00680000D01*
X00725000Y00680000D02*
X00725000Y00620000D01*
X00825000Y00620000D02*
X00825000Y00680000D01*
X00925000Y00680000D02*
X00925000Y00620000D01*
X01025000Y00620000D02*
X01025000Y00680000D01*
X01125000Y00680000D02*
X01125000Y00620000D01*
X01325000Y00620000D02*
X01325000Y00680000D01*
X01425000Y00680000D02*
X01425000Y00620000D01*
X01525000Y00620000D02*
X01525000Y00680000D01*
X01625000Y00680000D02*
X01625000Y00620000D01*
X01725000Y00620000D02*
X01725000Y00680000D01*
X01825000Y00680000D02*
X01825000Y00620000D01*
X01925000Y00620000D02*
X01925000Y00680000D01*
X02025000Y00680000D02*
X02025000Y00620000D01*
X02225000Y00620000D02*
X02225000Y00680000D01*
X02325000Y00680000D02*
X02325000Y00620000D01*
X02425000Y00620000D02*
X02425000Y00680000D01*
X02525000Y00680000D02*
X02525000Y00620000D01*
X02625000Y00620000D02*
X02625000Y00680000D01*
X02725000Y00680000D02*
X02725000Y00620000D01*
X02825000Y00620000D02*
X02825000Y00680000D01*
X02925000Y00680000D02*
X02925000Y00620000D01*
X02725000Y02520000D02*
X02725000Y02580000D01*
X02625000Y02580000D02*
X02625000Y02520000D01*
X02525000Y02520000D02*
X02525000Y02580000D01*
X02425000Y02580000D02*
X02425000Y02520000D01*
X02325000Y02520000D02*
X02325000Y02580000D01*
X02225000Y02580000D02*
X02225000Y02520000D01*
X02125000Y02520000D02*
X02125000Y02580000D01*
X02025000Y02580000D02*
X02025000Y02520000D01*
X01825000Y02520000D02*
X01825000Y02580000D01*
X01725000Y02580000D02*
X01725000Y02520000D01*
X01625000Y02520000D02*
X01625000Y02580000D01*
X01525000Y02580000D02*
X01525000Y02520000D01*
X01425000Y02520000D02*
X01425000Y02580000D01*
X01325000Y02580000D02*
X01325000Y02520000D01*
X01225000Y02520000D02*
X01225000Y02580000D01*
X01125000Y02580000D02*
X01125000Y02520000D01*
X00965000Y02520000D02*
X00965000Y02580000D01*
X00865000Y02580000D02*
X00865000Y02520000D01*
X00765000Y02520000D02*
X00765000Y02580000D01*
X00665000Y02580000D02*
X00665000Y02520000D01*
X00565000Y02520000D02*
X00565000Y02580000D01*
X00465000Y02580000D02*
X00465000Y02520000D01*
X00365000Y02520000D02*
X00365000Y02580000D01*
X00265000Y02580000D02*
X00265000Y02520000D01*
D11*
X03025000Y02450000D03*
X03125000Y02450000D03*
X03125000Y02350000D03*
X03025000Y02350000D03*
X03025000Y02250000D03*
X03125000Y02250000D03*
X03125000Y02150000D03*
X03125000Y02050000D03*
X03025000Y02050000D03*
X03025000Y02150000D03*
X03025000Y01950000D03*
X03125000Y01950000D03*
X03125000Y01850000D03*
X03025000Y01850000D03*
X03025000Y01750000D03*
X03125000Y01750000D03*
X03125000Y01650000D03*
X03125000Y01550000D03*
X03025000Y01550000D03*
X03025000Y01650000D03*
X03025000Y01450000D03*
X03125000Y01450000D03*
X03125000Y01350000D03*
X03025000Y01350000D03*
X03025000Y01250000D03*
X03125000Y01250000D03*
X03125000Y01150000D03*
X03125000Y01050000D03*
X03025000Y01050000D03*
X03025000Y01150000D03*
X03025000Y00950000D03*
X03125000Y00950000D03*
D12*
X01825000Y01350000D03*
X01725000Y01350000D03*
X01625000Y01350000D03*
X01325000Y01350000D03*
X01225000Y01350000D03*
X01125000Y01350000D03*
X00800000Y01350000D03*
X00700000Y01350000D03*
X00600000Y01350000D03*
X00600000Y01825000D03*
X00700000Y01825000D03*
X00800000Y01825000D03*
X01125000Y01825000D03*
X01225000Y01825000D03*
X01325000Y01825000D03*
X01625000Y01825000D03*
X01725000Y01825000D03*
X01825000Y01825000D03*
D13*
X02025000Y02000000D03*
X01650000Y01525000D03*
X01075000Y01700000D03*
X00700000Y01625000D03*
X00600000Y01500000D03*
X00675000Y02000000D03*
X01425000Y00500000D03*
X03275000Y01250000D03*
X03400000Y01450000D03*
X03275000Y01650000D03*
D14*
X01425000Y00500000D02*
X00425000Y00500000D01*
X00250000Y00675000D01*
X00250000Y01625000D01*
X00325000Y01700000D01*
X01075000Y01700000D01*
X00975000Y01525000D02*
X00625000Y01525000D01*
X00600000Y01500000D01*
X00700000Y01625000D02*
X00400000Y01625000D01*
X00375000Y01500000D01*
X00375000Y01175000D01*
X00750000Y00775000D01*
X03350000Y00775000D01*
X03400000Y00850000D01*
X03400000Y01450000D01*
X03275000Y01650000D02*
X03275000Y02525000D01*
X03225000Y02575000D01*
X02950000Y02575000D01*
X02900000Y02525000D01*
X02900000Y02375000D01*
X02050000Y01525000D01*
X01650000Y01525000D01*
X02025000Y02000000D02*
X00675000Y02000000D01*
X00975000Y01525000D02*
X01000000Y01500000D01*
X01000000Y01200000D01*
X01275000Y00925000D01*
X02775000Y00925000D01*
X02850000Y00850000D01*
X03225000Y00850000D01*
X03275000Y00900000D01*
X03275000Y01250000D01*
M02*
