G75*
%MOIN*%
%OFA0B0*%
%FSLAX26Y26*%
%IPPOS*%
%LPD*%
%AMOC8*
5,1,8,0,0,1.08239X$1,22.5*
%
%ADD10C,0.060000*%
%ADD11OC8,0.060000*%
%ADD12C,0.059370*%
%ADD13C,0.040000*%
%ADD14C,0.051496*%
D10*
X00625000Y00620000D02*
X00625000Y00680000D01*
X00725000Y00680000D02*
X00725000Y00620000D01*
X00825000Y00620000D02*
X00825000Y00680000D01*
X00925000Y00680000D02*
X00925000Y00620000D01*
X01025000Y00620000D02*
X01025000Y00680000D01*
X01125000Y00680000D02*
X01125000Y00620000D01*
X01325000Y00620000D02*
X01325000Y00680000D01*
X01425000Y00680000D02*
X01425000Y00620000D01*
X01525000Y00620000D02*
X01525000Y00680000D01*
X01625000Y00680000D02*
X01625000Y00620000D01*
X01725000Y00620000D02*
X01725000Y00680000D01*
X01825000Y00680000D02*
X01825000Y00620000D01*
X01925000Y00620000D02*
X01925000Y00680000D01*
X02025000Y00680000D02*
X02025000Y00620000D01*
X02225000Y00620000D02*
X02225000Y00680000D01*
X02325000Y00680000D02*
X02325000Y00620000D01*
X02425000Y00620000D02*
X02425000Y00680000D01*
X02525000Y00680000D02*
X02525000Y00620000D01*
X02625000Y00620000D02*
X02625000Y00680000D01*
X02725000Y00680000D02*
X02725000Y00620000D01*
X02825000Y00620000D02*
X02825000Y00680000D01*
X02925000Y00680000D02*
X02925000Y00620000D01*
X02725000Y02520000D02*
X02725000Y02580000D01*
X02625000Y02580000D02*
X02625000Y02520000D01*
X02525000Y02520000D02*
X02525000Y02580000D01*
X02425000Y02580000D02*
X02425000Y02520000D01*
X02325000Y02520000D02*
X02325000Y02580000D01*
X02225000Y02580000D02*
X02225000Y02520000D01*
X02125000Y02520000D02*
X02125000Y02580000D01*
X02025000Y02580000D02*
X02025000Y02520000D01*
X01825000Y02520000D02*
X01825000Y02580000D01*
X01725000Y02580000D02*
X01725000Y02520000D01*
X01625000Y02520000D02*
X01625000Y02580000D01*
X01525000Y02580000D02*
X01525000Y02520000D01*
X01425000Y02520000D02*
X01425000Y02580000D01*
X01325000Y02580000D02*
X01325000Y02520000D01*
X01225000Y02520000D02*
X01225000Y02580000D01*
X01125000Y02580000D02*
X01125000Y02520000D01*
X00965000Y02520000D02*
X00965000Y02580000D01*
X00865000Y02580000D02*
X00865000Y02520000D01*
X00765000Y02520000D02*
X00765000Y02580000D01*
X00665000Y02580000D02*
X00665000Y02520000D01*
X00565000Y02520000D02*
X00565000Y02580000D01*
X00465000Y02580000D02*
X00465000Y02520000D01*
X00365000Y02520000D02*
X00365000Y02580000D01*
X00265000Y02580000D02*
X00265000Y02520000D01*
D11*
X03025000Y02450000D03*
X03125000Y02450000D03*
X03125000Y02350000D03*
X03025000Y02350000D03*
X03025000Y02250000D03*
X03125000Y02250000D03*
X03125000Y02150000D03*
X03125000Y02050000D03*
X03025000Y02050000D03*
X03025000Y02150000D03*
X03025000Y01950000D03*
X03125000Y01950000D03*
X03125000Y01850000D03*
X03025000Y01850000D03*
X03025000Y01750000D03*
X03125000Y01750000D03*
X03125000Y01650000D03*
X03125000Y01550000D03*
X03025000Y01550000D03*
X03025000Y01650000D03*
X03025000Y01450000D03*
X03125000Y01450000D03*
X03125000Y01350000D03*
X03025000Y01350000D03*
X03025000Y01250000D03*
X03125000Y01250000D03*
X03125000Y01150000D03*
X03125000Y01050000D03*
X03025000Y01050000D03*
X03025000Y01150000D03*
X03025000Y00950000D03*
X03125000Y00950000D03*
D12*
X01825000Y01350000D03*
X01725000Y01350000D03*
X01625000Y01350000D03*
X01325000Y01350000D03*
X01225000Y01350000D03*
X01125000Y01350000D03*
X00800000Y01350000D03*
X00700000Y01350000D03*
X00600000Y01350000D03*
X00600000Y01825000D03*
X00700000Y01825000D03*
X00800000Y01825000D03*
X01125000Y01825000D03*
X01225000Y01825000D03*
X01325000Y01825000D03*
X01625000Y01825000D03*
X01725000Y01825000D03*
X01825000Y01825000D03*
D13*
X00140000Y02610000D02*
X00140000Y00165000D01*
X03460000Y00165000D01*
X03460000Y01423045D01*
X03455738Y01412757D01*
X03437243Y01394261D01*
X03413078Y01384252D01*
X03386922Y01384252D01*
X03373045Y01390000D01*
X03269852Y01390000D01*
X03275865Y01383987D01*
X03325865Y01333987D01*
X03335000Y01311935D01*
X03335000Y01276955D01*
X03340748Y01263078D01*
X03340748Y01236922D01*
X03330738Y01212757D01*
X03312243Y01194261D01*
X03288078Y01184252D01*
X03261922Y01184252D01*
X03237757Y01194261D01*
X03219261Y01212757D01*
X03209252Y01236922D01*
X03209252Y01263078D01*
X03214470Y01275677D01*
X03200147Y01290000D01*
X03183995Y01290000D01*
X03195000Y01278995D01*
X03195000Y01221005D01*
X03173995Y01200000D01*
X03195000Y01178995D01*
X03195000Y01121005D01*
X03173995Y01100000D01*
X03195000Y01078995D01*
X03195000Y01021005D01*
X03173995Y01000000D01*
X03195000Y00978995D01*
X03195000Y00921005D01*
X03153995Y00880000D01*
X03096005Y00880000D01*
X03075000Y00901005D01*
X03053995Y00880000D01*
X02996005Y00880000D01*
X02955000Y00921005D01*
X02955000Y00978995D01*
X02976005Y01000000D01*
X02955000Y01021005D01*
X02955000Y01078995D01*
X02966005Y01090000D01*
X02863065Y01090000D01*
X02841013Y01099134D01*
X02001634Y01938513D01*
X01987757Y01944261D01*
X01969261Y01962757D01*
X01959252Y01986922D01*
X01959252Y02013078D01*
X01962119Y02020000D01*
X00969853Y02020000D01*
X00835553Y01885700D01*
X00839473Y01884076D01*
X00859076Y01864473D01*
X00866558Y01846411D01*
X01014134Y01993987D01*
X01031013Y02010865D01*
X01053065Y02020000D01*
X01826935Y02020000D01*
X01848987Y02010865D01*
X02658987Y01200865D01*
X02675865Y01183987D01*
X02685000Y01161935D01*
X02685000Y00738995D01*
X02685348Y00739343D01*
X02711076Y00750000D01*
X02738924Y00750000D01*
X02764652Y00739343D01*
X02775000Y00728995D01*
X02785348Y00739343D01*
X02811076Y00750000D01*
X02838924Y00750000D01*
X02864652Y00739343D01*
X02875000Y00728995D01*
X02885348Y00739343D01*
X02911076Y00750000D01*
X02938924Y00750000D01*
X02964652Y00739343D01*
X02984343Y00719652D01*
X02995000Y00693924D01*
X02995000Y00606076D01*
X02984343Y00580348D01*
X02964652Y00560657D01*
X02938924Y00550000D01*
X02911076Y00550000D01*
X02885348Y00560657D01*
X02875000Y00571005D01*
X02864652Y00560657D01*
X02838924Y00550000D01*
X02811076Y00550000D01*
X02785348Y00560657D01*
X02775000Y00571005D01*
X02764652Y00560657D01*
X02738924Y00550000D01*
X02711076Y00550000D01*
X02685348Y00560657D01*
X02675000Y00571005D01*
X02664652Y00560657D01*
X02638924Y00550000D01*
X02611076Y00550000D01*
X02585348Y00560657D01*
X02585000Y00561005D01*
X02585000Y00438065D01*
X02575865Y00416013D01*
X02350865Y00191013D01*
X02333987Y00174134D01*
X02311935Y00165000D01*
X00663065Y00165000D01*
X00641013Y00174134D01*
X00241013Y00574134D01*
X00224134Y00591013D01*
X00215000Y00613065D01*
X00215000Y00936935D01*
X00224134Y00958987D01*
X00449134Y01183987D01*
X00457105Y01191958D01*
X00449668Y01195597D01*
X00439812Y01199958D01*
X00438983Y01200826D01*
X00437906Y01201354D01*
X00430778Y01209433D01*
X00423340Y01217233D01*
X00422907Y01218352D01*
X00422113Y01219252D01*
X00418619Y01229444D01*
X00414733Y01239497D01*
X00414761Y01240696D01*
X00414372Y01241831D01*
X00415045Y01252585D01*
X00440016Y02301395D01*
X00440283Y02313280D01*
X00440300Y02313318D01*
X00440301Y02313359D01*
X00445110Y02324229D01*
X00449911Y02335121D01*
X00449941Y02335150D01*
X00449958Y02335188D01*
X00458582Y02343411D01*
X00467164Y02351616D01*
X00467203Y02351631D01*
X00467233Y02351660D01*
X00478365Y02355964D01*
X00489416Y02360253D01*
X00489458Y02360252D01*
X00489497Y02360267D01*
X00501425Y02359983D01*
X00945676Y02350000D01*
X02396935Y02350000D01*
X02418987Y02340865D01*
X02967929Y01791924D01*
X02976005Y01800000D01*
X02955000Y01821005D01*
X02955000Y01878995D01*
X02976005Y01900000D01*
X02955000Y01921005D01*
X02955000Y01978995D01*
X02976005Y02000000D01*
X02955000Y02021005D01*
X02955000Y02078995D01*
X02976005Y02100000D01*
X02955000Y02121005D01*
X02955000Y02178995D01*
X02976005Y02200000D01*
X02955000Y02221005D01*
X02955000Y02278995D01*
X02976005Y02300000D01*
X02955000Y02321005D01*
X02955000Y02378995D01*
X02976005Y02400000D01*
X02955000Y02421005D01*
X02955000Y02478995D01*
X02996005Y02520000D01*
X03053995Y02520000D01*
X03075000Y02498995D01*
X03096005Y02520000D01*
X03153995Y02520000D01*
X03195000Y02478995D01*
X03195000Y02421005D01*
X03173995Y02400000D01*
X03195000Y02378995D01*
X03195000Y02321005D01*
X03173995Y02300000D01*
X03195000Y02278995D01*
X03195000Y02221005D01*
X03173995Y02200000D01*
X03195000Y02178995D01*
X03195000Y02121005D01*
X03173995Y02100000D01*
X03195000Y02078995D01*
X03195000Y02021005D01*
X03173995Y02000000D01*
X03195000Y01978995D01*
X03195000Y01921005D01*
X03173995Y01900000D01*
X03195000Y01878995D01*
X03195000Y01821005D01*
X03173995Y01800000D01*
X03195000Y01778995D01*
X03195000Y01721005D01*
X03173995Y01700000D01*
X03195000Y01678995D01*
X03195000Y01629852D01*
X03209252Y01644105D01*
X03209252Y01663078D01*
X03219261Y01687243D01*
X03237757Y01705738D01*
X03261922Y01715748D01*
X03288078Y01715748D01*
X03312243Y01705738D01*
X03330738Y01687243D01*
X03340748Y01663078D01*
X03340748Y01636922D01*
X03335000Y01623045D01*
X03335000Y01613065D01*
X03325865Y01591013D01*
X03250865Y01516013D01*
X03244852Y01510000D01*
X03373045Y01510000D01*
X03386922Y01515748D01*
X03413078Y01515748D01*
X03437243Y01505738D01*
X03455738Y01487243D01*
X03460000Y01476955D01*
X03460000Y02610000D01*
X02788341Y02610000D01*
X02795000Y02593924D01*
X02795000Y02506076D01*
X02784343Y02480348D01*
X02764652Y02460657D01*
X02738924Y02450000D01*
X02711076Y02450000D01*
X02685348Y02460657D01*
X02675000Y02471005D01*
X02664652Y02460657D01*
X02638924Y02450000D01*
X02611076Y02450000D01*
X02585348Y02460657D01*
X02575000Y02471005D01*
X02564652Y02460657D01*
X02538924Y02450000D01*
X02511076Y02450000D01*
X02485348Y02460657D01*
X02475000Y02471005D01*
X02464652Y02460657D01*
X02438924Y02450000D01*
X02411076Y02450000D01*
X02385348Y02460657D01*
X02375000Y02471005D01*
X02364652Y02460657D01*
X02338924Y02450000D01*
X02311076Y02450000D01*
X02285348Y02460657D01*
X02275000Y02471005D01*
X02264652Y02460657D01*
X02238924Y02450000D01*
X02211076Y02450000D01*
X02185348Y02460657D01*
X02175000Y02471005D01*
X02164652Y02460657D01*
X02138924Y02450000D01*
X02111076Y02450000D01*
X02085348Y02460657D01*
X02075000Y02471005D01*
X02064652Y02460657D01*
X02038924Y02450000D01*
X02011076Y02450000D01*
X01985348Y02460657D01*
X01965657Y02480348D01*
X01955000Y02506076D01*
X01955000Y02593924D01*
X01961659Y02610000D01*
X01888341Y02610000D01*
X01895000Y02593924D01*
X01895000Y02506076D01*
X01884343Y02480348D01*
X01864652Y02460657D01*
X01838924Y02450000D01*
X01811076Y02450000D01*
X01785348Y02460657D01*
X01775000Y02471005D01*
X01764652Y02460657D01*
X01738924Y02450000D01*
X01711076Y02450000D01*
X01685348Y02460657D01*
X01675000Y02471005D01*
X01664652Y02460657D01*
X01638924Y02450000D01*
X01611076Y02450000D01*
X01585348Y02460657D01*
X01575000Y02471005D01*
X01564652Y02460657D01*
X01538924Y02450000D01*
X01511076Y02450000D01*
X01485348Y02460657D01*
X01475000Y02471005D01*
X01464652Y02460657D01*
X01438924Y02450000D01*
X01411076Y02450000D01*
X01385348Y02460657D01*
X01375000Y02471005D01*
X01364652Y02460657D01*
X01338924Y02450000D01*
X01311076Y02450000D01*
X01285348Y02460657D01*
X01275000Y02471005D01*
X01264652Y02460657D01*
X01238924Y02450000D01*
X01211076Y02450000D01*
X01185348Y02460657D01*
X01175000Y02471005D01*
X01164652Y02460657D01*
X01138924Y02450000D01*
X01111076Y02450000D01*
X01085348Y02460657D01*
X01065657Y02480348D01*
X01055000Y02506076D01*
X01055000Y02593924D01*
X01061659Y02610000D01*
X01028341Y02610000D01*
X01035000Y02593924D01*
X01035000Y02506076D01*
X01024343Y02480348D01*
X01004652Y02460657D01*
X00978924Y02450000D01*
X00951076Y02450000D01*
X00925348Y02460657D01*
X00915000Y02471005D01*
X00904652Y02460657D01*
X00878924Y02450000D01*
X00851076Y02450000D01*
X00825348Y02460657D01*
X00815000Y02471005D01*
X00804652Y02460657D01*
X00778924Y02450000D01*
X00751076Y02450000D01*
X00725348Y02460657D01*
X00715000Y02471005D01*
X00704652Y02460657D01*
X00678924Y02450000D01*
X00651076Y02450000D01*
X00625348Y02460657D01*
X00615000Y02471005D01*
X00604652Y02460657D01*
X00578924Y02450000D01*
X00551076Y02450000D01*
X00525348Y02460657D01*
X00515000Y02471005D01*
X00504652Y02460657D01*
X00478924Y02450000D01*
X00451076Y02450000D01*
X00425348Y02460657D01*
X00407929Y02478076D01*
X00404087Y02474234D01*
X00396447Y02468683D01*
X00388032Y02464396D01*
X00379050Y02461477D01*
X00369722Y02460000D01*
X00365000Y02460000D01*
X00365000Y02549999D01*
X00364999Y02549999D01*
X00364999Y02460000D01*
X00360278Y02460000D01*
X00350950Y02461477D01*
X00341968Y02464396D01*
X00333553Y02468683D01*
X00325913Y02474234D01*
X00322071Y02478076D01*
X00304652Y02460657D01*
X00278924Y02450000D01*
X00251076Y02450000D01*
X00225348Y02460657D01*
X00205657Y02480348D01*
X00195000Y02506076D01*
X00195000Y02593924D01*
X00201659Y02610000D01*
X00140000Y02610000D01*
X00140000Y02599904D02*
X00197477Y02599904D01*
X00195000Y02559906D02*
X00140000Y02559906D01*
X00140000Y02519907D02*
X00195000Y02519907D01*
X00206097Y02479908D02*
X00140000Y02479908D01*
X00140000Y02439910D02*
X02955000Y02439910D01*
X02975917Y02399911D02*
X00140000Y02399911D01*
X00140000Y02359913D02*
X00488540Y02359913D01*
X00504541Y02359913D02*
X02955000Y02359913D01*
X02956091Y02319914D02*
X02439938Y02319914D01*
X02479937Y02279916D02*
X02955921Y02279916D01*
X02955000Y02239917D02*
X02519935Y02239917D01*
X02559934Y02199919D02*
X02975924Y02199919D01*
X02955000Y02159920D02*
X02599932Y02159920D01*
X02639931Y02119922D02*
X02956083Y02119922D01*
X02955929Y02079923D02*
X02679929Y02079923D01*
X02719928Y02039925D02*
X02955000Y02039925D01*
X02975931Y01999926D02*
X02759926Y01999926D01*
X02799925Y01959928D02*
X02955000Y01959928D01*
X02956076Y01919929D02*
X02839923Y01919929D01*
X02879922Y01879931D02*
X02955936Y01879931D01*
X02955000Y01839932D02*
X02919921Y01839932D01*
X02959919Y01799934D02*
X02975939Y01799934D01*
X03025000Y01650000D02*
X02385000Y02290000D01*
X00945000Y02290000D01*
X00500000Y02300000D01*
X00475000Y01250000D01*
X00555000Y01245000D01*
X00850000Y01245000D01*
X00915000Y01360000D01*
X00915000Y01720000D01*
X01095000Y01900000D01*
X01275000Y01900000D01*
X01305000Y01870000D01*
X01305000Y01840000D01*
X01325000Y01825000D01*
X01245000Y01810000D02*
X01225000Y01825000D01*
X01245000Y01810000D02*
X01245000Y01540000D01*
X01395000Y01390000D01*
X01395000Y00760000D01*
X01305000Y00670000D01*
X01325000Y00650000D01*
X01425000Y00650000D02*
X01425000Y00500000D01*
X01250000Y00400000D02*
X01225000Y00425000D01*
X01225000Y01150000D01*
X01325000Y01250000D01*
X01325000Y01350000D01*
X01225000Y01350000D02*
X01225000Y01250000D01*
X01050000Y01075000D01*
X00575000Y01075000D01*
X00400000Y00900000D01*
X00400000Y00625000D01*
X00725000Y00300000D01*
X02200000Y00300000D01*
X02425000Y00525000D01*
X02425000Y00650000D01*
X02525000Y00650000D02*
X02525000Y00450000D01*
X02300000Y00225000D01*
X00675000Y00225000D01*
X00275000Y00625000D01*
X00275000Y00925000D01*
X00500000Y01150000D01*
X01025000Y01150000D01*
X01125000Y01250000D01*
X00825000Y01360000D02*
X00800000Y01350000D01*
X00825000Y01360000D02*
X00825000Y01720000D01*
X01065000Y01960000D01*
X01815000Y01960000D01*
X02625000Y01150000D01*
X02625000Y00650000D01*
X02663016Y00559979D02*
X02686984Y00559979D01*
X02763016Y00559979D02*
X02786984Y00559979D01*
X02863016Y00559979D02*
X02886984Y00559979D01*
X02963016Y00559979D02*
X03460000Y00559979D01*
X03460000Y00519981D02*
X02585000Y00519981D01*
X02585000Y00559979D02*
X02586984Y00559979D01*
X02585000Y00479982D02*
X03460000Y00479982D01*
X03460000Y00439984D02*
X02585000Y00439984D01*
X02559838Y00399985D02*
X03460000Y00399985D01*
X03460000Y00359987D02*
X02519839Y00359987D01*
X02479841Y00319988D02*
X03460000Y00319988D01*
X03460000Y00279990D02*
X02439842Y00279990D01*
X02399844Y00239991D02*
X03460000Y00239991D01*
X03460000Y00199993D02*
X02359845Y00199993D01*
X02125000Y00525000D02*
X01975000Y00525000D01*
X01925000Y00575000D01*
X01925000Y00650000D01*
X01825000Y00650000D02*
X01825000Y00550000D01*
X01675000Y00400000D01*
X01250000Y00400000D01*
X01525000Y00650000D02*
X01545000Y00670000D01*
X01485000Y00730000D01*
X01485000Y01810000D01*
X01575000Y01900000D01*
X01755000Y01900000D01*
X01815000Y01840000D01*
X01825000Y01825000D01*
X01725000Y01825000D02*
X01725000Y01725000D01*
X02125000Y01325000D01*
X02125000Y00525000D01*
X02025000Y00650000D02*
X02025000Y01270000D01*
X01635000Y01660000D01*
X01635000Y01810000D01*
X01625000Y01825000D01*
X01859926Y01999926D02*
X01959252Y01999926D01*
X01972090Y01959928D02*
X01899925Y01959928D01*
X01939923Y01919929D02*
X02020218Y01919929D01*
X02060217Y01879931D02*
X01979922Y01879931D01*
X02019921Y01839932D02*
X02100215Y01839932D01*
X02140214Y01799934D02*
X02059919Y01799934D01*
X02099918Y01759935D02*
X02180212Y01759935D01*
X02220211Y01719937D02*
X02139916Y01719937D01*
X02179915Y01679938D02*
X02260209Y01679938D01*
X02300208Y01639939D02*
X02219913Y01639939D01*
X02259912Y01599941D02*
X02340206Y01599941D01*
X02380205Y01559942D02*
X02299910Y01559942D01*
X02339909Y01519944D02*
X02420203Y01519944D01*
X02460202Y01479945D02*
X02379907Y01479945D01*
X02419906Y01439947D02*
X02500200Y01439947D01*
X02540199Y01399948D02*
X02459904Y01399948D01*
X02499903Y01359950D02*
X02580197Y01359950D01*
X02620196Y01319951D02*
X02539901Y01319951D01*
X02579900Y01279953D02*
X02660194Y01279953D01*
X02700193Y01239954D02*
X02619898Y01239954D01*
X02659897Y01199956D02*
X02740191Y01199956D01*
X02780190Y01159957D02*
X02685000Y01159957D01*
X02685000Y01119959D02*
X02820188Y01119959D01*
X02875000Y01150000D02*
X02025000Y02000000D01*
X02175000Y02080000D02*
X03015000Y01240000D01*
X03025000Y01250000D01*
X03025000Y01150000D02*
X02875000Y01150000D01*
X02955965Y01079960D02*
X02685000Y01079960D01*
X02685000Y01039962D02*
X02955000Y01039962D01*
X02975968Y00999963D02*
X02685000Y00999963D01*
X02685000Y00959965D02*
X02955000Y00959965D01*
X02956039Y00919966D02*
X02685000Y00919966D01*
X02685000Y00879968D02*
X03460000Y00879968D01*
X03460000Y00839969D02*
X02685000Y00839969D01*
X02685000Y00799970D02*
X03460000Y00799970D01*
X03460000Y00759972D02*
X02685000Y00759972D01*
X02984021Y00719973D02*
X03460000Y00719973D01*
X03460000Y00679975D02*
X02995000Y00679975D01*
X02995000Y00639976D02*
X03460000Y00639976D01*
X03460000Y00599978D02*
X02992474Y00599978D01*
X03193961Y00919966D02*
X03460000Y00919966D01*
X03460000Y00959965D02*
X03195000Y00959965D01*
X03174032Y00999963D02*
X03460000Y00999963D01*
X03460000Y01039962D02*
X03195000Y01039962D01*
X03194035Y01079960D02*
X03460000Y01079960D01*
X03460000Y01119959D02*
X03193953Y01119959D01*
X03195000Y01159957D02*
X03460000Y01159957D01*
X03460000Y01199956D02*
X03317938Y01199956D01*
X03340748Y01239954D02*
X03460000Y01239954D01*
X03460000Y01279953D02*
X03335000Y01279953D01*
X03275000Y01300000D02*
X03275000Y01250000D01*
X03275000Y01300000D02*
X03225000Y01350000D01*
X03125000Y01350000D01*
X03125000Y01425000D02*
X03150000Y01450000D01*
X03400000Y01450000D01*
X03442930Y01399948D02*
X03460000Y01399948D01*
X03460000Y01359950D02*
X03299903Y01359950D01*
X03331679Y01319951D02*
X03460000Y01319951D01*
X03460000Y01479945D02*
X03458761Y01479945D01*
X03460000Y01519944D02*
X03254797Y01519944D01*
X03294795Y01559942D02*
X03460000Y01559942D01*
X03460000Y01599941D02*
X03329564Y01599941D01*
X03340748Y01639939D02*
X03460000Y01639939D01*
X03460000Y01679938D02*
X03333764Y01679938D01*
X03275000Y01650000D02*
X03275000Y01625000D01*
X03200000Y01550000D01*
X03125000Y01550000D01*
X03195000Y01639939D02*
X03205087Y01639939D01*
X03194057Y01679938D02*
X03216236Y01679938D01*
X03193931Y01719937D02*
X03460000Y01719937D01*
X03460000Y01759935D02*
X03195000Y01759935D01*
X03174061Y01799934D02*
X03460000Y01799934D01*
X03460000Y01839932D02*
X03195000Y01839932D01*
X03194064Y01879931D02*
X03460000Y01879931D01*
X03460000Y01919929D02*
X03193924Y01919929D01*
X03195000Y01959928D02*
X03460000Y01959928D01*
X03460000Y01999926D02*
X03174069Y01999926D01*
X03195000Y02039925D02*
X03460000Y02039925D01*
X03460000Y02079923D02*
X03194071Y02079923D01*
X03193917Y02119922D02*
X03460000Y02119922D01*
X03460000Y02159920D02*
X03195000Y02159920D01*
X03174076Y02199919D02*
X03460000Y02199919D01*
X03460000Y02239917D02*
X03195000Y02239917D01*
X03194079Y02279916D02*
X03460000Y02279916D01*
X03460000Y02319914D02*
X03193909Y02319914D01*
X03195000Y02359913D02*
X03460000Y02359913D01*
X03460000Y02399911D02*
X03174083Y02399911D01*
X03195000Y02439910D02*
X03460000Y02439910D01*
X03460000Y02479908D02*
X03194086Y02479908D01*
X03154088Y02519907D02*
X03460000Y02519907D01*
X03460000Y02559906D02*
X02795000Y02559906D01*
X02795000Y02519907D02*
X02995912Y02519907D01*
X03054088Y02519907D02*
X03095912Y02519907D01*
X02955914Y02479908D02*
X02783903Y02479908D01*
X02792523Y02599904D02*
X03460000Y02599904D01*
X02175000Y02080000D02*
X00945000Y02080000D01*
X00705000Y01840000D01*
X00700000Y01825000D01*
X00600000Y01825000D02*
X00600000Y01925000D01*
X00675000Y02000000D01*
X00843619Y01879931D02*
X00900078Y01879931D01*
X00869782Y01919929D02*
X00940076Y01919929D01*
X00909780Y01959928D02*
X00980075Y01959928D01*
X00949779Y01999926D02*
X01020073Y01999926D01*
X01125000Y01825000D02*
X01125000Y01750000D01*
X01075000Y01700000D01*
X00700000Y01625000D02*
X00700000Y01350000D01*
X00600000Y01350000D02*
X00600000Y01500000D01*
X00421410Y01519944D02*
X00140000Y01519944D01*
X00140000Y01559942D02*
X00422363Y01559942D01*
X00423315Y01599941D02*
X00140000Y01599941D01*
X00140000Y01639939D02*
X00424267Y01639939D01*
X00425220Y01679938D02*
X00140000Y01679938D01*
X00140000Y01719937D02*
X00426172Y01719937D01*
X00427124Y01759935D02*
X00140000Y01759935D01*
X00140000Y01799934D02*
X00428077Y01799934D01*
X00429029Y01839932D02*
X00140000Y01839932D01*
X00140000Y01879931D02*
X00429981Y01879931D01*
X00430934Y01919929D02*
X00140000Y01919929D01*
X00140000Y01959928D02*
X00431886Y01959928D01*
X00432838Y01999926D02*
X00140000Y01999926D01*
X00140000Y02039925D02*
X00433791Y02039925D01*
X00434743Y02079923D02*
X00140000Y02079923D01*
X00140000Y02119922D02*
X00435695Y02119922D01*
X00436648Y02159920D02*
X00140000Y02159920D01*
X00140000Y02199919D02*
X00437600Y02199919D01*
X00438553Y02239917D02*
X00140000Y02239917D01*
X00140000Y02279916D02*
X00439505Y02279916D01*
X00443201Y02319914D02*
X00140000Y02319914D01*
X00364999Y02479908D02*
X00365000Y02479908D01*
X00364999Y02519907D02*
X00365000Y02519907D01*
X01023903Y02479908D02*
X01066097Y02479908D01*
X01055000Y02519907D02*
X01035000Y02519907D01*
X01035000Y02559906D02*
X01055000Y02559906D01*
X01057477Y02599904D02*
X01032523Y02599904D01*
X01883903Y02479908D02*
X01966097Y02479908D01*
X01955000Y02519907D02*
X01895000Y02519907D01*
X01895000Y02559906D02*
X01955000Y02559906D01*
X01957477Y02599904D02*
X01892523Y02599904D01*
X01650000Y01525000D02*
X01825000Y01350000D01*
X01725000Y01350000D02*
X01725000Y01360000D01*
X01665000Y01420000D01*
X01575000Y01420000D01*
X01545000Y01390000D01*
X01545000Y01330000D01*
X01635000Y01240000D01*
X01635000Y00670000D01*
X01625000Y00650000D01*
X01725000Y00650000D02*
X01725000Y01240000D01*
X01635000Y01330000D01*
X01625000Y01350000D01*
X00439816Y01199956D02*
X00140000Y01199956D01*
X00140000Y01159957D02*
X00425104Y01159957D01*
X00385106Y01119959D02*
X00140000Y01119959D01*
X00140000Y01079960D02*
X00345107Y01079960D01*
X00305109Y01039962D02*
X00140000Y01039962D01*
X00140000Y00999963D02*
X00265110Y00999963D01*
X00225112Y00959965D02*
X00140000Y00959965D01*
X00140000Y00919966D02*
X00215000Y00919966D01*
X00215000Y00879968D02*
X00140000Y00879968D01*
X00140000Y00839969D02*
X00215000Y00839969D01*
X00215000Y00799970D02*
X00140000Y00799970D01*
X00140000Y00759972D02*
X00215000Y00759972D01*
X00215000Y00719973D02*
X00140000Y00719973D01*
X00140000Y00679975D02*
X00215000Y00679975D01*
X00215000Y00639976D02*
X00140000Y00639976D01*
X00140000Y00599978D02*
X00220421Y00599978D01*
X00255168Y00559979D02*
X00140000Y00559979D01*
X00140000Y00519981D02*
X00295166Y00519981D01*
X00335165Y00479982D02*
X00140000Y00479982D01*
X00140000Y00439984D02*
X00375163Y00439984D01*
X00415162Y00399985D02*
X00140000Y00399985D01*
X00140000Y00359987D02*
X00455160Y00359987D01*
X00495159Y00319988D02*
X00140000Y00319988D01*
X00140000Y00279990D02*
X00535157Y00279990D01*
X00575156Y00239991D02*
X00140000Y00239991D01*
X00140000Y00199993D02*
X00615155Y00199993D01*
X00414744Y01239954D02*
X00140000Y01239954D01*
X00140000Y01279953D02*
X00415696Y01279953D01*
X00416649Y01319951D02*
X00140000Y01319951D01*
X00140000Y01359950D02*
X00417601Y01359950D01*
X00418553Y01399948D02*
X00140000Y01399948D01*
X00140000Y01439947D02*
X00419506Y01439947D01*
X00420458Y01479945D02*
X00140000Y01479945D01*
X03174039Y01199956D02*
X03232062Y01199956D01*
X03209252Y01239954D02*
X03195000Y01239954D01*
X03194042Y01279953D02*
X03210194Y01279953D01*
D14*
X03275000Y01250000D03*
X03400000Y01450000D03*
X03275000Y01650000D03*
X02025000Y02000000D03*
X01650000Y01525000D03*
X01075000Y01700000D03*
X00700000Y01625000D03*
X00600000Y01500000D03*
X00675000Y02000000D03*
X01425000Y00500000D03*
M02*
