G75*
%MOIN*%
%OFA0B0*%
%FSLAX26Y26*%
%IPPOS*%
%LPD*%
%AMOC8*
5,1,8,0,0,1.08239X$1,22.5*
%
%ADD10C,0.060000*%
%ADD11OC8,0.060000*%
%ADD12C,0.070000*%
%ADD13C,0.040000*%
D10*
X00575000Y00345000D02*
X00575000Y00405000D01*
X00675000Y00405000D02*
X00675000Y00345000D01*
X00775000Y00345000D02*
X00775000Y00405000D01*
X00875000Y00405000D02*
X00875000Y00345000D01*
X00975000Y00345000D02*
X00975000Y00405000D01*
X01075000Y00405000D02*
X01075000Y00345000D01*
X01275000Y00345000D02*
X01275000Y00405000D01*
X01375000Y00405000D02*
X01375000Y00345000D01*
X01475000Y00345000D02*
X01475000Y00405000D01*
X01575000Y00405000D02*
X01575000Y00345000D01*
X01675000Y00345000D02*
X01675000Y00405000D01*
X01775000Y00405000D02*
X01775000Y00345000D01*
X01875000Y00345000D02*
X01875000Y00405000D01*
X01975000Y00405000D02*
X01975000Y00345000D01*
X02175000Y00345000D02*
X02175000Y00405000D01*
X02275000Y00405000D02*
X02275000Y00345000D01*
X02375000Y00345000D02*
X02375000Y00405000D01*
X02475000Y00405000D02*
X02475000Y00345000D01*
X02575000Y00345000D02*
X02575000Y00405000D01*
X02675000Y00405000D02*
X02675000Y00345000D01*
X02775000Y00345000D02*
X02775000Y00405000D01*
X02875000Y00405000D02*
X02875000Y00345000D01*
X02675000Y02245000D02*
X02675000Y02305000D01*
X02575000Y02305000D02*
X02575000Y02245000D01*
X02475000Y02245000D02*
X02475000Y02305000D01*
X02375000Y02305000D02*
X02375000Y02245000D01*
X02275000Y02245000D02*
X02275000Y02305000D01*
X02175000Y02305000D02*
X02175000Y02245000D01*
X02075000Y02245000D02*
X02075000Y02305000D01*
X01975000Y02305000D02*
X01975000Y02245000D01*
X01775000Y02245000D02*
X01775000Y02305000D01*
X01675000Y02305000D02*
X01675000Y02245000D01*
X01575000Y02245000D02*
X01575000Y02305000D01*
X01475000Y02305000D02*
X01475000Y02245000D01*
X01375000Y02245000D02*
X01375000Y02305000D01*
X01275000Y02305000D02*
X01275000Y02245000D01*
X01175000Y02245000D02*
X01175000Y02305000D01*
X01075000Y02305000D02*
X01075000Y02245000D01*
X00915000Y02245000D02*
X00915000Y02305000D01*
X00815000Y02305000D02*
X00815000Y02245000D01*
X00715000Y02245000D02*
X00715000Y02305000D01*
X00615000Y02305000D02*
X00615000Y02245000D01*
X00515000Y02245000D02*
X00515000Y02305000D01*
X00415000Y02305000D02*
X00415000Y02245000D01*
X00315000Y02245000D02*
X00315000Y02305000D01*
X00215000Y02305000D02*
X00215000Y02245000D01*
D11*
X02975000Y02175000D03*
X03075000Y02175000D03*
X03075000Y02075000D03*
X02975000Y02075000D03*
X02975000Y01975000D03*
X03075000Y01975000D03*
X03075000Y01875000D03*
X02975000Y01875000D03*
X02975000Y01775000D03*
X02975000Y01675000D03*
X03075000Y01675000D03*
X03075000Y01775000D03*
X03075000Y01575000D03*
X02975000Y01575000D03*
X02975000Y01475000D03*
X03075000Y01475000D03*
X03075000Y01375000D03*
X02975000Y01375000D03*
X02975000Y01275000D03*
X03075000Y01275000D03*
X03075000Y01175000D03*
X02975000Y01175000D03*
X02975000Y01075000D03*
X03075000Y01075000D03*
X03075000Y00975000D03*
X03075000Y00875000D03*
X02975000Y00875000D03*
X02975000Y00975000D03*
X02975000Y00775000D03*
X03075000Y00775000D03*
X03075000Y00675000D03*
X02975000Y00675000D03*
D12*
X02200000Y00950000D03*
X02100000Y00950000D03*
X02000000Y00950000D03*
X01900000Y00950000D03*
X02100000Y00800000D03*
X01875000Y00550000D03*
X01375000Y00500000D03*
X01275000Y00725000D03*
X01225000Y00950000D03*
X01325000Y00950000D03*
X01425000Y00950000D03*
X01525000Y00950000D03*
X01575000Y01175000D03*
X01525000Y01450000D03*
X01425000Y01450000D03*
X01325000Y01450000D03*
X01225000Y01450000D03*
X00875000Y01350000D03*
X00825000Y01450000D03*
X00725000Y01450000D03*
X00625000Y01450000D03*
X00525000Y01450000D03*
X00525000Y01600000D03*
X00625000Y01600000D03*
X00275000Y01375000D03*
X00725000Y01050000D03*
X00725000Y00950000D03*
X00625000Y00950000D03*
X00525000Y00950000D03*
X00825000Y00950000D03*
X00900000Y01150000D03*
X01100000Y01025000D03*
X01900000Y01450000D03*
X02000000Y01450000D03*
X02100000Y01450000D03*
X02200000Y01450000D03*
D13*
X02050000Y01275000D02*
X01350000Y01275000D01*
X01100000Y01025000D01*
X00900000Y01150000D02*
X00900000Y01325000D01*
X00875000Y01350000D01*
X01025000Y01450000D02*
X01025000Y00725000D01*
X01275000Y00725000D01*
X01350000Y00525000D02*
X01375000Y00500000D01*
X01350000Y00525000D02*
X00650000Y00525000D01*
X00150000Y01025000D01*
X00150000Y01350000D01*
X00400000Y01600000D01*
X00525000Y01600000D01*
X00625000Y01600000D02*
X00875000Y01600000D01*
X01025000Y01450000D01*
X00725000Y01125000D02*
X00550000Y01300000D01*
X00375000Y01300000D01*
X00275000Y01375000D01*
X00725000Y01125000D02*
X00725000Y01050000D01*
X01575000Y01175000D02*
X01725000Y01025000D01*
X01725000Y00700000D01*
X01875000Y00550000D01*
X02100000Y00800000D02*
X02300000Y00800000D01*
X02400000Y00900000D01*
X02400000Y00925000D01*
X02050000Y01275000D01*
M02*
